<?xml version="1.0" encoding="UTF-8"?>
<svg xmlns="http://www.w3.org/2000/svg" version="1.1" viewBox="0 0 971 971" fill-rule="evenodd"
xmlns:xlink="http://www.w3.org/1999/xlink">
<g><path style="opacity:0.733" fill="#e5a21f" d="M 300.5,315.5 C 298.167,315.5 295.833,315.5 293.5,315.5C 283.082,304.847 270.249,299.514 255,299.5C 238.94,299.945 226.44,306.778 217.5,320C 216.263,320.232 215.263,320.732 214.5,321.5C 212.499,321.883 210.165,322.217 207.5,322.5C 201.779,319.058 199.279,314.058 200,307.5C 203.574,302.085 207.741,297.085 212.5,292.5C 201.318,281.152 190.318,269.652 179.5,258C 158.96,255.073 152.126,243.906 159,224.5C 169.259,214.089 179.759,213.922 190.5,224C 195.256,229.937 197.422,236.77 197,244.5C 208.833,256.333 220.667,268.167 232.5,280C 239.886,278.661 247.386,277.828 255,277.5C 263.74,277.654 272.24,278.821 280.5,281C 278.653,274.307 278.153,267.474 279,260.5C 280.397,251.586 282.397,242.919 285,234.5C 270.653,220.319 256.486,205.986 242.5,191.5C 229.204,191.199 221.538,184.532 219.5,171.5C 222.264,154.909 231.597,149.409 247.5,155C 254.473,160.446 258.14,167.613 258.5,176.5C 271.86,189.194 284.86,202.194 297.5,215.5C 306.541,206.811 317.208,200.977 329.5,198C 298.974,166.474 268.14,135.307 237,104.5C 222.173,85.0602 220.507,64.3935 232,42.5C 248.058,15.3958 271.558,4.22912 302.5,9C 311.398,14.1184 320.731,18.1184 330.5,21C 338.05,29.556 338.384,38.3893 331.5,47.5C 321.488,54.6521 311.988,53.9854 303,45.5C 300.813,40.6749 298.98,35.8415 297.5,31C 276.385,27.4746 260.885,35.308 251,54.5C 242.879,71.8915 246.712,85.8915 262.5,96.5C 263,97.5 263.5,98.5 264,99.5C 297.167,133.333 330.333,167.167 363.5,201C 384.003,208.144 394.67,222.644 395.5,244.5C 395.827,257.681 390.494,267.847 379.5,275C 368.431,280.005 360.764,277.005 356.5,266C 358.242,259.293 362.575,255.626 369.5,255C 373.054,250.066 374.22,244.566 373,238.5C 371.254,234.673 369.254,231.007 367,227.5C 350.843,217.449 334.677,217.282 318.5,227C 304.599,241.374 299.099,258.54 302,278.5C 305.248,286.658 308.748,294.658 312.5,302.5C 311.764,304.541 310.931,306.541 310,308.5C 306.975,311.178 303.808,313.512 300.5,315.5 Z"/></g>
<g><path style="opacity:0.733" fill="#e5a21e" d="M 774.5,322.5 C 772.244,322.602 769.911,322.268 767.5,321.5C 762.104,316.282 756.438,311.115 750.5,306C 734.366,297.684 718.033,297.351 701.5,305C 696.628,308.392 691.961,311.892 687.5,315.5C 685.167,315.5 682.833,315.5 680.5,315.5C 674.919,312.735 671.252,308.235 669.5,302C 673.654,294.184 677.154,286.018 680,277.5C 682.246,258.575 677.079,242.075 664.5,228C 648.511,217.32 632.178,216.986 615.5,227C 607.585,235.754 606.585,245.087 612.5,255C 616.175,255.557 619.508,256.89 622.5,259C 622.167,259.333 621.833,259.667 621.5,260C 622.5,261 623.5,262 624.5,263C 625.492,270.505 622.158,275.172 614.5,277C 601.496,276.349 592.663,269.849 588,257.5C 582.364,229.93 592.53,211.097 618.5,201C 654.997,162.503 692.164,124.67 730,87.5C 738.572,63.7723 731.738,45.6057 709.5,33C 700.979,29.1288 692.313,28.6288 683.5,31.5C 681.097,48.0817 671.763,54.5817 655.5,51C 646.757,45.9991 643.59,38.4991 646,28.5C 650.173,20.6534 656.673,16.4867 665.5,16C 680.99,6.27901 697.324,4.61235 714.5,11C 745.189,25.028 759.022,48.8613 756,82.5C 754.001,90.8321 750.168,98.1654 744.5,104.5C 713.68,135.487 683.013,166.654 652.5,198C 664.716,200.856 675.216,206.689 684,215.5C 697.014,202.319 710.181,189.319 723.5,176.5C 723.73,164.48 729.396,156.647 740.5,153C 753.985,151.641 761.319,157.807 762.5,171.5C 760.551,184.609 752.884,191.109 739.5,191C 725.696,205.805 711.529,220.305 697,234.5C 699.29,243.674 701.29,253.008 703,262.5C 703.386,268.94 703.053,275.273 702,281.5C 710.073,278.775 718.406,277.441 727,277.5C 734.614,277.828 742.114,278.661 749.5,280C 761.333,268.167 773.167,256.333 785,244.5C 784.123,228.991 791.456,219.657 807,216.5C 819.003,217.502 825.17,224.002 825.5,236C 826.069,243.195 823.403,248.861 817.5,253C 812.867,255.742 807.867,257.409 802.5,258C 791.682,269.652 780.682,281.152 769.5,292.5C 772.484,295.985 775.651,299.318 779,302.5C 784.338,310.794 782.838,317.46 774.5,322.5 Z"/></g>
<g><path style="opacity:0.733" fill="#e5a21e" d="M 343.5,68.5 C 356.966,67.556 364.633,73.7227 366.5,87C 364.951,98.0488 358.618,104.215 347.5,105.5C 333.618,103.411 327.785,95.4109 330,81.5C 332.476,74.853 336.976,70.5197 343.5,68.5 Z"/></g>
<g><path style="opacity:0.733" fill="#e5a21e" d="M 628.5,68.5 C 648.373,68.1973 655.54,77.5307 650,96.5C 640.05,108.101 629.717,108.434 619,97.5C 612.67,84.6578 615.836,74.9912 628.5,68.5 Z"/></g>
<g><path style="opacity:0.733" fill="#e5a21f" d="M 421.5,70.5 C 435.799,69.8061 444.133,76.4728 446.5,90.5C 453.358,92.5956 459.691,95.7623 465.5,100C 474.586,106.415 483.086,113.582 491,121.5C 501.304,111.524 512.471,102.691 524.5,95C 527.971,92.9281 531.638,91.4281 535.5,90.5C 535.473,83.3887 538.473,77.8887 544.5,74C 560.761,66.9646 571.094,71.9646 575.5,89C 573.892,101.442 566.892,108.276 554.5,109.5C 552.625,109.37 550.792,109.037 549,108.5C 532.554,114.61 518.554,124.277 507,137.5C 506.333,138.5 506.333,139.5 507,140.5C 515.741,151.646 523.741,163.312 531,175.5C 544.119,161.706 558.952,150.206 575.5,141C 581.216,123.61 591.883,119.61 607.5,129C 615.115,139.919 613.782,149.586 603.5,158C 598.349,160.549 593.015,161.049 587.5,159.5C 558.364,177.467 533.864,200.467 514,228.5C 509.235,236.374 504.235,244.041 499,251.5C 498.667,251.167 498.333,250.833 498,250.5C 496.915,251.293 495.748,251.96 494.5,252.5C 492.167,252.5 489.833,252.5 487.5,252.5C 486.252,251.96 485.085,251.293 484,250.5C 483.667,250.833 483.333,251.167 483,251.5C 466.906,224.722 447.072,200.889 423.5,180C 414.527,172.195 404.86,165.362 394.5,159.5C 383.991,162.279 376.158,158.946 371,149.5C 367.268,135.959 372.101,127.292 385.5,123.5C 396.867,124.03 403.867,129.863 406.5,141C 422.87,150.445 437.703,161.945 451,175.5C 457.676,163.475 465.343,152.142 474,141.5C 474.982,140.241 475.315,138.908 475,137.5C 463.212,124.608 449.212,114.941 433,108.5C 418.132,110.645 409.299,104.312 406.5,89.5C 407.471,79.8744 412.471,73.541 421.5,70.5 Z M 490.5,155.5 C 499.721,166.916 507.721,179.25 514.5,192.5C 505.707,202.124 497.873,212.457 491,223.5C 483.923,212.424 476.089,201.924 467.5,192C 474.189,179.159 481.856,166.993 490.5,155.5 Z"/></g>
<g><path style="opacity:0.09" fill="#b08315" d="M 543.5,213.5 C 544.601,212.402 545.934,212.235 547.5,213C 546.207,213.49 544.873,213.657 543.5,213.5 Z"/></g>
<g><path style="opacity:0.733" fill="#e5a21e" d="M 183.5,325.5 C 182.508,325.328 181.842,325.662 181.5,326.5C 181.167,326.5 180.833,326.5 180.5,326.5C 179.833,325.167 179.167,325.167 178.5,326.5C 178.167,326.5 177.833,326.5 177.5,326.5C 175.981,325.59 174.315,324.757 172.5,324C 148.472,300.305 124.805,276.305 101.5,252C 82.1092,238.26 62.1092,237.26 41.5,249C 27.0409,261.756 23.3742,277.089 30.5,295C 43.4237,297.003 48.9237,304.503 47,317.5C 42.0771,330.209 33.2438,334.043 20.5,329C 17.9598,326.795 15.7932,324.295 14,321.5C 13.1667,316.5 12.3333,311.5 11.5,306.5C -0.547422,279.951 3.45258,256.118 23.5,235C 43.7812,218.744 66.4479,214.411 91.5,222C 100.772,225.635 109.439,230.301 117.5,236C 140.274,260.775 163.774,284.942 188,308.5C 191.962,315.331 190.462,320.997 183.5,325.5 Z"/></g>
<g><path style="opacity:0.733" fill="#e5a21e" d="M 805.5,325.5 C 802.455,325.492 799.455,325.159 796.5,324.5C 793.846,322.54 792.179,319.873 791.5,316.5C 791.759,312.605 793.259,308.938 796,305.5C 820.143,283.023 843.31,259.523 865.5,235C 894.564,214.241 924.231,213.241 954.5,232C 976.715,251.697 982.549,275.53 972,303.5C 969.299,306.167 968.466,309.167 969.5,312.5C 967.81,327.686 959.476,333.52 944.5,330C 933.958,322.414 931.791,312.914 938,301.5C 941.631,297.562 946.131,295.229 951.5,294.5C 959.239,272.875 953.239,256.375 933.5,245C 915.141,238.194 897.808,240.194 881.5,251C 857.862,275.639 833.862,299.972 809.5,324C 808.255,324.791 806.922,325.291 805.5,325.5 Z"/></g>
<g><path style="opacity:1" fill="#e5a320" d="M 573.5,320.5 C 577.127,319.72 580.46,318.22 583.5,316C 589.941,307.555 597.607,300.555 606.5,295C 613.733,293.955 620.733,294.455 627.5,296.5C 631.775,300.812 631.108,304.479 625.5,307.5C 614.488,315.667 602.821,322.834 590.5,329C 581.171,333.248 571.505,336.414 561.5,338.5C 561.5,339.5 561.5,340.5 561.5,341.5C 567.409,341.361 572.743,339.695 577.5,336.5C 585.387,333.728 593.387,331.228 601.5,329C 620.853,325.426 640.187,321.759 659.5,318C 669.13,316.589 678.797,316.256 688.5,317C 722.121,320.262 755.787,322.929 789.5,325C 809.603,327.035 828.603,332.702 846.5,342C 850.043,345.049 853.709,347.882 857.5,350.5C 862.748,356.251 868.248,361.917 874,367.5C 888.299,393.073 884.465,415.573 862.5,435C 852.907,441.455 843.24,447.622 833.5,453.5C 828.723,456.06 824.056,458.893 819.5,462C 820.094,462.464 820.761,462.631 821.5,462.5C 829.789,466.803 837.789,471.303 845.5,476C 858.401,466.101 869.567,454.601 879,441.5C 877.361,423.854 885.027,414.188 902,412.5C 915.301,416.768 920.634,425.768 918,439.5C 914.969,447.7 909.136,452.367 900.5,453.5C 899.833,453.167 899.167,452.833 898.5,452.5C 895.492,457.85 891.992,462.85 888,467.5C 879.642,476.248 870.808,484.415 861.5,492C 873.339,503.163 883.672,515.497 892.5,529C 910.471,532.44 915.638,542.607 908,559.5C 897.09,571.204 886.09,571.204 875,559.5C 872.387,554.034 871.887,548.367 873.5,542.5C 865.454,528.271 855.288,515.604 843,504.5C 829.295,514.102 814.795,522.269 799.5,529C 811.054,539.221 821.887,550.054 832,561.5C 836.53,567.356 840.197,573.69 843,580.5C 861.622,586.383 866.288,597.717 857,614.5C 846.365,624.021 836.031,623.687 826,613.5C 821.364,606.558 820.531,599.225 823.5,591.5C 817.052,577.864 808.052,566.031 796.5,556C 790.167,550.333 783.833,544.667 777.5,539C 769.332,533.748 760.999,528.748 752.5,524C 746.889,517.629 747.222,511.629 753.5,506C 756.738,504.632 760.072,504.299 763.5,505C 768.744,507.203 773.578,510.036 778,513.5C 794.659,507.754 810.159,499.754 824.5,489.5C 819.458,485.979 814.125,482.979 808.5,480.5C 806.929,478.029 805.929,475.363 805.5,472.5C 804.279,471.535 802.946,471.702 801.5,473C 787.433,482.03 773.1,490.53 758.5,498.5C 752.776,502.029 746.776,505.029 740.5,507.5C 733.239,510.087 725.906,512.587 718.5,515C 710.518,517.525 702.351,519.025 694,519.5C 675.365,517.231 657.532,512.231 640.5,504.5C 620.35,495.762 600.35,486.429 580.5,476.5C 580.041,481.132 581.041,485.466 583.5,489.5C 583.833,489.5 584.167,489.5 584.5,489.5C 584.709,490.922 585.209,492.255 586,493.5C 597.885,504.359 611.719,511.359 627.5,514.5C 629.111,516.095 631.111,517.261 633.5,518C 643.075,519.029 651.242,522.862 658,529.5C 659.439,531.275 660.439,533.275 661,535.5C 664.739,563.727 668.906,591.893 673.5,620C 673.657,625.34 670.99,627.84 665.5,627.5C 663.793,627.272 662.126,626.938 660.5,626.5C 658.973,626.573 657.973,625.906 657.5,624.5C 636.504,609.673 628.338,589.34 633,563.5C 634.16,558.847 635.993,554.513 638.5,550.5C 623.362,545.978 608.029,542.311 592.5,539.5C 594.858,552.405 596.691,565.405 598,578.5C 602.306,585.954 607.14,592.954 612.5,599.5C 615.802,602.974 618.968,606.641 622,610.5C 622.791,611.745 623.291,613.078 623.5,614.5C 627.208,621.785 630.041,629.452 632,637.5C 633.588,651.141 634.921,664.808 636,678.5C 636.278,679.416 636.778,680.082 637.5,680.5C 638.925,683.903 639.758,687.57 640,691.5C 641.142,699.811 641.475,708.145 641,716.5C 639.431,719.128 637.098,720.795 634,721.5C 632.019,721.101 630.519,720.101 629.5,718.5C 609.784,704.739 599.784,685.739 599.5,661.5C 599.963,651.808 601.63,642.308 604.5,633C 604.142,630.968 603.308,629.134 602,627.5C 601.329,626.748 600.496,626.414 599.5,626.5C 597.251,625.92 595.585,624.587 594.5,622.5C 592.375,620.176 589.875,619.509 587,620.5C 580.703,645.393 572.037,669.393 561,692.5C 550.549,710.618 536.382,725.118 518.5,736C 510.247,738.977 501.914,741.477 493.5,743.5C 488.321,741.081 482.987,738.914 477.5,737C 462.413,726.581 449.246,714.081 438,699.5C 432.886,691.607 428.553,683.274 425,674.5C 421.178,660.708 417.178,647.041 413,633.5C 411.304,629.052 408.471,625.719 404.5,623.5C 397.653,623.587 391.653,625.921 386.5,630.5C 393.61,642.938 396.61,656.271 395.5,670.5C 398.433,671.93 400.933,673.93 403,676.5C 412.886,696.088 410.886,714.421 397,731.5C 349.304,779.529 301.971,827.862 255,876.5C 242.126,892.128 241.459,908.461 253,925.5C 264.429,939.532 278.929,944.365 296.5,940C 298.367,934.504 300.367,929.004 302.5,923.5C 313.052,913.221 323.886,912.888 335,922.5C 341.3,932.874 340.133,942.374 331.5,951C 326.265,952.745 320.932,954.079 315.5,955C 283.724,970.765 256.557,964.932 234,937.5C 216.983,909.351 219.317,883.017 241,858.5C 276.5,822.333 312,786.167 347.5,750C 335.386,745.193 324.886,738.027 316,728.5C 314,725.167 312,721.833 310,718.5C 296,733.167 282,747.833 268,762.5C 269.162,772.341 265.328,779.841 256.5,785C 244.336,790.008 234.836,786.841 228,775.5C 224.478,764.058 227.978,755.558 238.5,750C 242.77,748.172 247.103,747.505 251.5,748C 267.967,729.865 284.801,712.031 302,694.5C 302.333,687.833 302.667,681.167 303,674.5C 303.332,671.494 304.166,668.66 305.5,666C 294.875,667.442 284.208,667.775 273.5,667C 255.638,684.528 238.138,702.362 221,720.5C 219.643,737.412 210.81,743.912 194.5,740C 180.937,732.731 178.103,722.565 186,709.5C 191.554,704.532 197.888,702.865 205,704.5C 221.014,688.653 236.847,672.653 252.5,656.5C 241.999,648.849 233.832,639.182 228,627.5C 189.78,665.055 151.613,702.555 113.5,740C 87.2524,758.447 60.5857,759.113 33.5,742C 11.6346,721.34 6.96796,697.34 19.5,670C 14.9444,657.669 18.6111,648.669 30.5,643C 45.2017,641.042 53.535,647.375 55.5,662C 54.2565,672.082 48.5898,678.249 38.5,680.5C 30.9144,698.409 34.5811,713.575 49.5,726C 64.1293,734.66 78.7959,734.66 93.5,726C 102.13,719.039 110.463,711.705 118.5,704C 152.628,670.373 186.961,636.873 221.5,603.5C 227.116,574.549 244.116,557.549 272.5,552.5C 283.383,553.858 292.549,558.524 300,566.5C 302.496,570.351 303.996,574.517 304.5,579C 300.474,589.119 293.807,591.453 284.5,586C 281.749,577.789 276.083,574.456 267.5,576C 243.146,588.051 238.646,605.218 254,627.5C 265.094,642.085 279.594,647.585 297.5,644C 302.645,641.617 307.978,639.617 313.5,638C 315.196,635.495 317.53,633.995 320.5,633.5C 318.054,631.239 317.054,628.405 317.5,625C 317.745,618.568 318.745,612.401 320.5,606.5C 322.838,600.441 324.672,594.108 326,587.5C 327.89,570.819 329.89,554.152 332,537.5C 333.509,533.15 335.176,528.817 337,524.5C 340.047,523.438 342.88,522.105 345.5,520.5C 354.317,516.109 363.651,512.775 373.5,510.5C 389.072,504.961 401.906,495.628 412,482.5C 413.507,479.299 415.007,476.132 416.5,473C 415.969,471.282 415.302,471.115 414.5,472.5C 409.09,474.026 403.756,475.859 398.5,478C 381.625,486.937 364.625,495.604 347.5,504C 315.943,517.089 284.61,516.589 253.5,502.5C 247.393,500.281 241.727,497.281 236.5,493.5C 232.167,490.331 227.5,487.664 222.5,485.5C 216.02,480.708 209.02,476.708 201.5,473.5C 184.469,466.818 167.802,459.318 151.5,451C 147.42,448.971 143.754,446.471 140.5,443.5C 135.099,438.105 130.099,432.438 125.5,426.5C 124.662,426.158 124.328,425.492 124.5,424.5C 119.135,413.371 116.135,401.704 115.5,389.5C 115.667,385.5 115.833,381.5 116,377.5C 118.233,372.035 120.733,366.701 123.5,361.5C 126.589,357.232 129.923,353.066 133.5,349C 139.068,344.584 144.735,340.417 150.5,336.5C 165.464,330.034 181.131,326.2 197.5,325C 243.978,318.936 290.644,316.27 337.5,317C 341.848,317.573 346.181,318.24 350.5,319C 376.73,326.466 402.73,334.632 428.5,343.5C 430.431,342.306 431.264,340.639 431,338.5C 428.313,337.287 425.48,336.62 422.5,336.5C 408.252,329.081 393.252,323.414 377.5,319.5C 371.469,316.04 365.969,311.707 361,306.5C 357.811,300.178 359.644,296.011 366.5,294C 377.332,291.792 386.999,294.125 395.5,301C 408.325,314.983 423.825,323.816 442,327.5C 443.518,317.758 445.518,308.092 448,298.5C 450.957,292.084 454.79,286.251 459.5,281C 456.764,277.598 453.43,274.931 449.5,273C 441.054,268.776 432.387,265.109 423.5,262C 418.268,259.367 416.435,255.201 418,249.5C 420.441,247.031 423.274,245.198 426.5,244C 434.095,242.644 441.762,242.144 449.5,242.5C 462.929,247.582 473.929,256.082 482.5,268C 487.379,266.885 492.379,266.052 497.5,265.5C 503.56,265.806 509.393,267.14 515,269.5C 522.903,257.428 533.403,248.428 546.5,242.5C 553.731,240.787 560.731,241.287 567.5,244C 572.423,247.615 572.756,251.615 568.5,256C 555.668,261.342 544.668,269.176 535.5,279.5C 539.985,283.8 543.485,288.8 546,294.5C 550.257,305.198 553.424,316.198 555.5,327.5C 561.151,325.783 566.818,323.95 572.5,322C 573.056,321.617 573.389,321.117 573.5,320.5 Z M 555.5,365.5 C 556.765,368.525 558.432,371.358 560.5,374C 554.227,377.397 553.56,381.397 558.5,386C 561.351,387.289 564.351,387.789 567.5,387.5C 568.167,390.5 568.833,393.5 569.5,396.5C 556.514,397.187 543.514,397.687 530.5,398C 523.556,401.088 522.89,405.088 528.5,410C 542.829,410.5 557.163,410.667 571.5,410.5C 571.262,415.787 569.928,420.787 567.5,425.5C 550.51,426.333 533.51,426.833 516.5,427C 511.182,430.951 511.182,434.951 516.5,439C 527.568,440.052 538.568,440.386 549.5,440C 547.286,442.925 544.953,445.759 542.5,448.5C 532.517,449.332 522.517,449.832 512.5,450C 507.231,453.819 507.231,457.819 512.5,462C 517.167,462.333 521.833,462.667 526.5,463C 524.32,469.011 520.32,473.178 514.5,475.5C 516.36,471.615 518.36,467.781 520.5,464C 518.873,464.43 517.373,464.596 516,464.5C 514.257,468.984 512.257,473.317 510,477.5C 508.615,476.449 507.615,475.116 507,473.5C 507.338,468.806 507.172,464.139 506.5,459.5C 504.286,461.99 503.119,464.99 503,468.5C 500.984,466.316 498.817,464.316 496.5,462.5C 495.4,458.558 495.233,454.558 496,450.5C 496.333,451.5 496.667,452.5 497,453.5C 497.774,451.597 497.44,449.93 496,448.5C 494.746,451.976 494.079,455.642 494,459.5C 493.617,458.944 493.117,458.611 492.5,458.5C 484.895,452.762 477.729,446.429 471,439.5C 466.814,425.627 471.647,416.127 485.5,411C 496.5,410.667 507.5,410.333 518.5,410C 523.331,406.352 523.665,402.352 519.5,398C 501.801,397.404 484.134,397.404 466.5,398C 461.231,395.892 459.231,392.059 460.5,386.5C 466.484,387.332 472.484,387.499 478.5,387C 483.311,384.877 484.644,381.377 482.5,376.5C 481.3,375.469 479.966,374.635 478.5,374C 473.582,373.805 468.749,373.305 464,372.5C 463.667,372.833 463.333,373.167 463,373.5C 462.612,370.151 462.779,366.817 463.5,363.5C 482.432,361.809 501.432,360.976 520.5,361C 526.633,357.57 526.967,353.57 521.5,349C 507.171,348.5 492.837,348.333 478.5,348.5C 476.119,344.079 474.119,339.412 472.5,334.5C 482.095,332.97 491.761,332.137 501.5,332C 505.292,329.947 506.458,326.781 505,322.5C 504.021,320.68 502.521,319.513 500.5,319C 491.153,319.335 481.819,319.168 472.5,318.5C 468.654,310.458 467.487,302.125 469,293.5C 470.503,290.155 473.003,288.155 476.5,287.5C 483.213,290.696 490.046,293.696 497,296.5C 502.538,294.316 508.038,291.982 513.5,289.5C 517.629,291.317 521.129,293.984 524,297.5C 529.85,309.562 533.85,322.229 536,335.5C 537.226,338.952 538.726,342.285 540.5,345.5C 538.971,347.188 537.137,348.521 535,349.5C 533.622,353.898 534.788,357.398 538.5,360C 545.203,359.369 550.87,361.202 555.5,365.5 Z M 409.5,357.5 C 410.765,358.479 412.099,359.479 413.5,360.5C 412.469,361.7 411.635,363.034 411,364.5C 406.391,362.892 401.891,361.058 397.5,359C 374.232,355.555 351.065,351.722 328,347.5C 321.96,348.315 319.96,351.648 322,357.5C 323.214,359.049 324.714,360.215 326.5,361C 342.289,364.683 358.289,367.349 374.5,369C 385.218,371.235 395.885,373.902 406.5,377C 405.009,381.085 403.676,385.252 402.5,389.5C 402.608,390.442 402.941,391.275 403.5,392C 394.663,388.496 385.663,385.162 376.5,382C 367.922,380.418 359.422,378.585 351,376.5C 343.379,378.562 341.879,382.729 346.5,389C 349.957,390.743 353.623,391.743 357.5,392C 356.304,392.654 356.304,393.154 357.5,393.5C 358.446,393.013 359.446,392.68 360.5,392.5C 369.232,394.687 377.899,397.187 386.5,400C 391.873,402.112 396.873,404.779 401.5,408C 401.095,408.945 400.428,409.612 399.5,410C 389.181,412.412 379.181,415.745 369.5,420C 360.787,424.01 352.121,428.01 343.5,432C 338.595,433.953 333.595,435.62 328.5,437C 327.058,437.377 326.058,438.21 325.5,439.5C 312.371,442.828 299.038,444.328 285.5,444C 281.24,443.191 277.24,441.691 273.5,439.5C 268.027,435.86 262.694,432.027 257.5,428C 249.446,424.108 245.612,426.608 246,435.5C 256.294,445.399 268.127,452.899 281.5,458C 291.229,459.564 301.229,459.231 311.5,457C 333.22,450.762 354.22,442.762 374.5,433C 384.149,429.675 393.649,426.175 403,422.5C 402.292,425.489 402.459,428.489 403.5,431.5C 401.167,435.333 398.833,439.167 396.5,443C 397.3,446.966 399.633,449.466 403.5,450.5C 409.175,447.411 415.008,444.745 421,442.5C 422.084,445.659 421.25,447.992 418.5,449.5C 406.603,452.966 394.936,457.133 383.5,462C 369.148,470.177 354.482,477.843 339.5,485C 316.311,494.553 292.978,494.887 269.5,486C 262.437,482.799 255.437,479.632 248.5,476.5C 231.432,464.963 213.432,454.963 194.5,446.5C 182.561,440.201 170.228,434.368 157.5,429C 153.542,426.766 150.042,423.933 147,420.5C 146.517,419.552 146.351,418.552 146.5,417.5C 146.504,415.158 147.337,413.158 149,411.5C 167.974,424.406 187.808,435.906 208.5,446C 225.54,457.858 243.54,468.191 262.5,477C 268.636,479.765 272.636,477.931 274.5,471.5C 273.781,469.272 272.448,467.439 270.5,466C 249.493,455.838 229.493,444.171 210.5,431C 195.34,423.59 180.674,415.423 166.5,406.5C 163.577,395.103 166.577,385.603 175.5,378C 180.05,375.573 184.55,373.073 189,370.5C 191.045,367.281 190.545,364.448 187.5,362C 185.919,361.293 184.419,360.46 183,359.5C 173.803,361.421 166.47,366.088 161,373.5C 156.262,370.931 152.762,367.264 150.5,362.5C 162.562,352.53 176.562,347.363 192.5,347C 240.265,340.132 288.265,337.132 336.5,338C 340.716,339.204 345.049,339.87 349.5,340C 369.435,346.149 389.435,351.983 409.5,357.5 Z M 695.5,338.5 C 695.833,338.5 696.167,338.5 696.5,338.5C 728.072,341.465 759.405,343.965 790.5,346C 805.821,347.996 820.487,352.162 834.5,358.5C 835.976,360.5 837.809,362.167 840,363.5C 840.4,368.708 838.567,373.042 834.5,376.5C 828.518,371.509 822.185,367.009 815.5,363C 810.347,361.912 807.013,363.912 805.5,369C 809.216,374.71 814.216,379.043 820.5,382C 826.171,386.53 828.004,392.363 826,399.5C 824.601,402.629 822.935,405.629 821,408.5C 810.962,417.435 800.129,425.269 788.5,432C 766.631,443.765 744.965,455.765 723.5,468C 720.441,472.37 721.108,476.037 725.5,479C 727.833,479.667 730.167,479.667 732.5,479C 756.445,465.357 780.445,451.691 804.5,438C 812.858,432.487 820.858,426.487 828.5,420C 830.833,417 833.167,414 835.5,411C 839.797,410.984 843.13,412.817 845.5,416.5C 815.711,440.281 784.044,461.281 750.5,479.5C 748.847,479.66 747.514,480.326 746.5,481.5C 738.415,484.707 730.415,488.207 722.5,492C 710.259,497.376 697.592,499.042 684.5,497C 678.123,495.489 671.79,493.823 665.5,492C 635.88,480.578 607.213,467.245 579.5,452C 579.167,451.667 578.833,451.333 578.5,451C 579.636,449.855 580.636,448.688 581.5,447.5C 585.99,451.355 590.49,451.355 595,447.5C 595.938,444.12 595.271,441.12 593,438.5C 592.333,432.167 592.333,425.833 593,419.5C 604.904,427.736 617.071,435.57 629.5,443C 646.544,450.133 664.044,455.633 682,459.5C 703.804,460.254 723.637,454.254 741.5,441.5C 748.517,435.219 747.517,430.885 738.5,428.5C 731.144,432.014 723.81,435.847 716.5,440C 707.55,442.851 698.383,444.684 689,445.5C 679.698,444.314 670.531,442.481 661.5,440C 647.816,435.884 634.816,430.217 622.5,423C 613.704,416.211 604.37,410.211 594.5,405C 599.278,403.639 603.944,401.972 608.5,400C 620.4,398.132 632.067,395.632 643.5,392.5C 649.899,391.6 652.732,387.934 652,381.5C 651.167,380.667 650.333,379.833 649.5,379C 629.994,379.998 611.161,383.831 593,390.5C 592.228,390.355 591.561,390.022 591,389.5C 590.211,386.166 589.044,382.999 587.5,380C 599.186,375.495 611.186,371.662 623.5,368.5C 637.001,366.813 650.335,364.313 663.5,361C 669.661,357.509 669.994,353.509 664.5,349C 636.331,350.862 608.998,356.695 582.5,366.5C 580.732,364.492 579.066,362.326 577.5,360C 587.401,355.144 597.734,351.477 608.5,349C 628.502,345.333 648.502,341.666 668.5,338C 677.578,337.196 686.578,337.363 695.5,338.5 Z M 505.5,499.5 C 505.461,500.756 505.961,501.756 507,502.5C 512.888,500.068 519.055,499.068 525.5,499.5C 534.546,499.76 543.546,500.427 552.5,501.5C 553.625,503.129 554.959,504.629 556.5,506C 552.833,506.333 549.167,506.667 545.5,507C 541.876,509.161 540.709,512.328 542,516.5C 542.908,518.439 544.408,519.439 546.5,519.5C 541.254,524.206 535.087,527.206 528,528.5C 521.605,527.147 515.605,524.814 510,521.5C 509.5,521.833 509,522.167 508.5,522.5C 510.946,527.392 514.946,530.225 520.5,531C 517.173,531.61 513.839,532.11 510.5,532.5C 508.486,537.376 509.153,541.71 512.5,545.5C 511.5,545.5 510.5,545.5 509.5,545.5C 509.335,547.827 508.669,549.993 507.5,552C 501.252,552.188 495.085,552.688 489,553.5C 487.887,552.289 486.72,552.289 485.5,553.5C 484.052,551.333 482.885,549 482,546.5C 479.524,544.937 478.024,545.604 477.5,548.5C 477.529,550.824 478.529,551.99 480.5,552C 478.109,549.126 478.442,547.626 481.5,547.5C 481.833,549.5 482.167,551.5 482.5,553.5C 479.482,553.665 476.482,553.498 473.5,553C 474.713,550.313 475.38,547.48 475.5,544.5C 480.299,543.98 484.966,542.813 489.5,541C 493.635,535.89 492.635,531.89 486.5,529C 483.518,528.502 480.518,528.335 477.5,528.5C 480.19,526.807 482.19,524.473 483.5,521.5C 490.175,521.666 496.842,521.5 503.5,521C 508.749,516.713 508.749,512.38 503.5,508C 480.493,507.833 457.493,507.333 434.5,506.5C 436.69,504.476 439.023,502.643 441.5,501C 448.651,499.74 455.818,498.574 463,497.5C 470.017,498.474 476.851,500.141 483.5,502.5C 486.044,501.265 486.044,500.099 483.5,499C 490.913,498.204 498.246,498.37 505.5,499.5 Z M 552.5,501.5 C 557.64,500.512 562.974,500.179 568.5,500.5C 568.472,502.582 569.139,504.416 570.5,506C 566.5,506.667 562.5,506.667 558.5,506C 557.412,503.289 555.412,501.789 552.5,501.5 Z M 548.5,520.5 C 556.833,520.5 565.167,520.5 573.5,520.5C 573.107,523.93 573.773,527.096 575.5,530C 566.66,530.384 557.826,530.884 549,531.5C 544.844,531.543 540.844,530.876 537,529.5C 536.292,530.381 535.458,531.047 534.5,531.5C 530.486,531.666 526.486,531.499 522.5,531C 521.944,530.617 521.611,530.117 521.5,529.5C 525.829,530.572 530.162,530.405 534.5,529C 539.361,526.407 544.028,523.573 548.5,520.5 Z M 446.5,521.5 C 450.204,524.352 454.204,526.685 458.5,528.5C 445.496,529.297 432.496,529.797 419.5,530C 420.802,527.787 421.802,525.454 422.5,523C 430.429,521.637 438.429,521.137 446.5,521.5 Z M 480.5,523.5 C 478.343,525.412 476.009,527.079 473.5,528.5C 471.833,528.5 470.167,528.5 468.5,528.5C 472.261,526.462 476.261,524.796 480.5,523.5 Z M 449.5,521.5 C 459.5,521.5 469.5,521.5 479.5,521.5C 469.379,528.887 459.379,528.887 449.5,521.5 Z M 459.5,543.5 C 453.5,547.167 447.5,550.833 441.5,554.5C 433.49,554.644 425.49,554.977 417.5,555.5C 417.789,551.894 417.456,548.394 416.5,545C 423.503,544.256 430.503,543.922 437.5,544C 436.027,544.71 435.36,545.876 435.5,547.5C 439.062,547.035 442.395,545.868 445.5,544C 450.155,543.501 454.821,543.334 459.5,543.5 Z M 462.5,543.5 C 463.833,543.5 465.167,543.5 466.5,543.5C 466.67,544.822 466.337,545.989 465.5,547C 466.108,547.87 466.941,548.37 468,548.5C 470.36,546.96 472.526,545.293 474.5,543.5C 473.706,546.802 473.04,550.135 472.5,553.5C 469.813,553.664 467.146,553.497 464.5,553C 465.784,551.703 465.617,550.536 464,549.5C 462.008,550.665 460.175,551.998 458.5,553.5C 455.833,553.5 453.167,553.5 450.5,553.5C 453.933,550.941 457.599,548.608 461.5,546.5C 462.386,545.675 462.719,544.675 462.5,543.5 Z M 467.5,543.5 C 472.421,543.135 472.755,544.135 468.5,546.5C 467.614,545.675 467.281,544.675 467.5,543.5 Z M 511.5,524.5 C 513.819,524.992 515.819,525.992 517.5,527.5C 514.911,527.539 512.911,526.539 511.5,524.5 Z M 570.5,544.5 C 571.873,544.343 573.207,544.51 574.5,545C 573.773,547.124 573.106,549.291 572.5,551.5C 571.833,551.833 571.167,552.167 570.5,552.5C 561.861,551.723 553.195,551.223 544.5,551C 541.833,549.333 539.167,547.667 536.5,546C 542.471,545.075 548.305,545.575 554,547.5C 555.059,547.37 555.892,546.87 556.5,546C 561.351,545.826 566.018,545.326 570.5,544.5 Z M 366.5,718.5 C 374.173,711.992 381.006,704.659 387,696.5C 386.638,708.886 381.138,718.386 370.5,725C 362.442,728.12 354.442,728.12 346.5,725C 328.979,714.449 321.812,698.949 325,678.5C 327.86,667.62 331.693,657.12 336.5,647C 336.255,645.089 336.255,643.089 336.5,641C 334.547,636.717 331.214,634.383 326.5,634C 327.056,633.617 327.389,633.117 327.5,632.5C 345.282,620.886 357.116,604.886 363,584.5C 363.95,573.409 363.45,562.409 361.5,551.5C 372.986,551.885 383.986,549.885 394.5,545.5C 396.368,554.928 398.034,564.428 399.5,574C 399.333,574.833 399.167,575.667 399,576.5C 389.629,584.203 381.296,592.87 374,602.5C 370.556,608.825 367.89,615.492 366,622.5C 362.103,642.534 357.769,662.534 353,682.5C 351.575,693.801 351.241,705.135 352,716.5C 356.286,723.352 361.119,724.019 366.5,718.5 Z M 512.5,545.5 C 513.833,545.5 515.167,545.5 516.5,545.5C 517.204,547.678 517.537,549.678 517.5,551.5C 514.833,552.833 512.167,552.833 509.5,551.5C 509.977,550.069 510.643,548.736 511.5,547.5C 511.554,548.687 511.887,550.02 512.5,551.5C 513.694,549.484 513.694,547.484 512.5,545.5 Z M 529.5,551.5 C 529.44,550.957 529.107,550.624 528.5,550.5C 525.444,552.289 522.111,552.956 518.5,552.5C 518.295,549.886 518.295,547.552 518.5,545.5C 520.258,546.128 521.758,547.128 523,548.5C 526.196,544.813 529.696,544.647 533.5,548C 535.001,549.252 536.668,550.252 538.5,551C 535.518,551.498 532.518,551.665 529.5,551.5 Z M 651.5,570.5 C 652.496,570.414 653.329,570.748 654,571.5C 654.882,578.389 656.048,585.222 657.5,592C 657.355,592.772 657.022,593.439 656.5,594C 649.955,596.246 646.121,594.08 645,587.5C 644.73,584.776 644.23,582.109 643.5,579.5C 646.419,576.616 649.085,573.616 651.5,570.5 Z M 343.5,565.5 C 345.47,566.162 347.47,566.828 349.5,567.5C 351.601,578.27 349.435,587.937 343,596.5C 340.865,595.873 338.698,595.373 336.5,595C 338.167,586.633 339.833,578.299 341.5,570C 341.043,569.586 340.709,569.086 340.5,568.5C 341.34,567.265 342.34,566.265 343.5,565.5 Z M 444.5,661.5 C 450.842,661.666 457.175,661.5 463.5,661C 471.47,656.227 471.47,651.56 463.5,647C 455.16,646.611 446.827,646.778 438.5,647.5C 438.076,643.988 437.076,640.655 435.5,637.5C 453.5,638.092 471.5,638.259 489.5,638C 493.644,635.28 494.477,631.78 492,627.5C 489.834,625.879 487.334,625.045 484.5,625C 465.507,624.051 446.507,623.217 427.5,622.5C 426.365,620.201 425.032,618.034 423.5,616C 468.503,616.428 513.503,616.261 558.5,615.5C 562.5,615.833 566.5,616.167 570.5,616.5C 569.11,618.169 568.777,619.836 569.5,621.5C 566.215,622.324 562.882,622.824 559.5,623C 542.5,623.333 525.5,623.667 508.5,624C 502.109,627.921 502.109,631.921 508.5,636C 527.167,636.333 545.833,636.667 564.5,637C 562.998,640.005 561.998,643.171 561.5,646.5C 535.845,647.245 510.178,647.745 484.5,648C 477.258,648.985 475.091,652.819 478,659.5C 479.885,661.02 482.051,662.02 484.5,662.5C 508.042,663.038 531.542,662.371 555,660.5C 554.305,664.575 552.805,668.409 550.5,672C 516.173,672.962 481.839,673.462 447.5,673.5C 446.5,669.501 445.5,665.501 444.5,661.5 Z M 376.5,658.5 C 380.403,658.651 382.403,660.651 382.5,664.5C 381.897,671.682 380.563,678.682 378.5,685.5C 371.554,685.211 368.554,681.544 369.5,674.5C 370.012,670.106 370.846,665.772 372,661.5C 373.409,660.219 374.909,659.219 376.5,658.5 Z M 616.5,662.5 C 618.262,662.357 619.929,662.691 621.5,663.5C 622.378,668.356 623.378,673.189 624.5,678C 622.598,682.408 619.264,684.574 614.5,684.5C 613.426,679.701 612.426,674.867 611.5,670C 612.518,667.13 614.185,664.63 616.5,662.5 Z"/></g>
<g><path style="opacity:0.953" fill="#a67414" d="M 573.5,320.5 C 573.389,321.117 573.056,321.617 572.5,322C 566.818,323.95 561.151,325.783 555.5,327.5C 553.424,316.198 550.257,305.198 546,294.5C 543.485,288.8 539.985,283.8 535.5,279.5C 544.668,269.176 555.668,261.342 568.5,256C 572.756,251.615 572.423,247.615 567.5,244C 560.731,241.287 553.731,240.787 546.5,242.5C 553.809,238.384 561.142,238.551 568.5,243C 574.707,247.276 575.041,251.943 569.5,257C 557.219,262.298 546.552,269.798 537.5,279.5C 541.983,284.157 545.483,289.49 548,295.5C 551.768,305.24 554.601,315.24 556.5,325.5C 562.225,324.036 567.892,322.369 573.5,320.5 Z"/></g>
<g><path style="opacity:0.812" fill="#b27b15" d="M 449.5,242.5 C 454.917,243.209 459.917,245.042 464.5,248C 471.369,254.206 478.203,260.373 485,266.5C 494.888,263.746 504.721,264.08 514.5,267.5C 520.26,259.906 526.926,253.072 534.5,247C 538.203,244.646 542.203,243.146 546.5,242.5C 533.403,248.428 522.903,257.428 515,269.5C 509.393,267.14 503.56,265.806 497.5,265.5C 492.379,266.052 487.379,266.885 482.5,268C 473.929,256.082 462.929,247.582 449.5,242.5 Z"/></g>
<g><path style="opacity:0.925" fill="#b37d17" d="M 449.5,242.5 C 441.762,242.144 434.095,242.644 426.5,244C 423.274,245.198 420.441,247.031 418,249.5C 416.435,255.201 418.268,259.367 423.5,262C 432.387,265.109 441.054,268.776 449.5,273C 453.43,274.931 456.764,277.598 459.5,281C 454.79,286.251 450.957,292.084 448,298.5C 445.518,308.092 443.518,317.758 442,327.5C 423.825,323.816 408.325,314.983 395.5,301C 386.999,294.125 377.332,291.792 366.5,294C 359.644,296.011 357.811,300.178 361,306.5C 365.969,311.707 371.469,316.04 377.5,319.5C 368.008,316.677 361.342,310.677 357.5,301.5C 358.077,297.16 360.41,294.327 364.5,293C 372.216,291.136 379.883,291.469 387.5,294C 396.122,300.287 404.455,306.953 412.5,314C 420.999,319.223 429.999,323.39 439.5,326.5C 441.694,315.728 444.527,305.061 448,294.5C 450.678,289.812 453.844,285.479 457.5,281.5C 454.909,278.534 451.909,276.034 448.5,274C 439.949,270.147 431.282,266.48 422.5,263C 414.576,258.456 413.576,252.789 419.5,246C 429.097,239.576 439.097,238.409 449.5,242.5 Z"/></g>
<g><path style="opacity:0.918" fill="#b27c15" d="M 627.5,296.5 C 620.733,294.455 613.733,293.955 606.5,295C 597.607,300.555 589.941,307.555 583.5,316C 580.46,318.22 577.127,319.72 573.5,320.5C 576.102,318.19 579.102,316.357 582.5,315C 587.467,309.031 592.801,303.365 598.5,298C 600.67,296.414 603.004,295.08 605.5,294C 610.086,293.803 614.586,293.303 619,292.5C 621.069,293.264 623.236,293.764 625.5,294C 626.381,294.708 627.047,295.542 627.5,296.5 Z"/></g>
<g><path style="opacity:0.976" fill="#896312" d="M 422.5,336.5 C 425.48,336.62 428.313,337.287 431,338.5C 431.264,340.639 430.431,342.306 428.5,343.5C 402.73,334.632 376.73,326.466 350.5,319C 346.181,318.24 341.848,317.573 337.5,317C 290.644,316.27 243.978,318.936 197.5,325C 181.131,326.2 165.464,330.034 150.5,336.5C 158.681,331.214 167.681,327.881 177.5,326.5C 177.833,327.833 178.167,327.833 178.5,326.5C 179.167,326.5 179.833,326.5 180.5,326.5C 180.833,326.5 181.167,326.5 181.5,326.5C 182.492,326.672 183.158,326.338 183.5,325.5C 191.522,324.664 199.522,323.664 207.5,322.5C 210.165,322.217 212.499,321.883 214.5,321.5C 240.77,318.719 267.103,316.719 293.5,315.5C 295.833,315.5 298.167,315.5 300.5,315.5C 315.678,314.622 331.678,315.122 348.5,317C 374.86,324.565 401.027,332.731 427,341.5C 428.059,341.37 428.892,340.87 429.5,340C 427.142,338.724 424.808,337.558 422.5,336.5 Z"/></g>
<g><path style="opacity:0.91" fill="#b07c18" d="M 377.5,319.5 C 393.252,323.414 408.252,329.081 422.5,336.5C 407.461,330.668 392.461,325.002 377.5,319.5 Z"/></g>
<g><path style="opacity:0.69" fill="#866112" d="M 680.5,315.5 C 682.833,315.5 685.167,315.5 687.5,315.5C 714.4,318.077 741.067,320.077 767.5,321.5C 769.911,322.268 772.244,322.602 774.5,322.5C 782.132,323.066 789.466,323.732 796.5,324.5C 799.455,325.159 802.455,325.492 805.5,325.5C 823.24,328.915 839.573,335.748 854.5,346C 856.141,347.129 857.141,348.629 857.5,350.5C 853.709,347.882 850.043,345.049 846.5,342C 828.603,332.702 809.603,327.035 789.5,325C 755.787,322.929 722.121,320.262 688.5,317C 678.797,316.256 669.13,316.589 659.5,318C 640.187,321.759 620.853,325.426 601.5,329C 593.387,331.228 585.387,333.728 577.5,336.5C 581.907,333.965 586.574,331.965 591.5,330.5C 592.167,330.5 592.5,330.167 592.5,329.5C 592.833,329.5 593.167,329.5 593.5,329.5C 594.492,329.672 595.158,329.338 595.5,328.5C 616.214,324.991 636.881,321.157 657.5,317C 665.119,315.795 672.786,315.295 680.5,315.5 Z"/></g>
<g><path style="opacity:0.733" fill="#e5a11e" d="M 79.5,330.5 C 97.0383,330.192 104.205,338.525 101,355.5C 95.4957,364.669 87.6624,367.502 77.5,364C 63.6851,354.149 63.0184,343.483 75.5,332C 77.0581,331.79 78.3915,331.29 79.5,330.5 Z"/></g>
<g><path style="opacity:0.733" fill="#e4a21e" d="M 893.5,330.5 C 904.952,329.123 912.285,333.956 915.5,345C 915.658,355.216 910.658,361.883 900.5,365C 890.701,366.516 883.868,362.683 880,353.5C 877.664,341.697 882.164,334.03 893.5,330.5 Z"/></g>
<g><path style="opacity:0.802" fill="#ac7815" d="M 625.5,307.5 C 623.332,310.5 620.666,313 617.5,315C 609.936,319.274 602.602,323.774 595.5,328.5C 594.508,328.328 593.842,328.662 593.5,329.5C 593.167,329.5 592.833,329.5 592.5,329.5C 591.833,329.5 591.5,329.833 591.5,330.5C 586.574,331.965 581.907,333.965 577.5,336.5C 572.743,339.695 567.409,341.361 561.5,341.5C 561.5,340.5 561.5,339.5 561.5,338.5C 571.505,336.414 581.171,333.248 590.5,329C 602.821,322.834 614.488,315.667 625.5,307.5 Z"/></g>
<g><path style="opacity:0.59" fill="#896312" d="M 409.5,357.5 C 389.435,351.983 369.435,346.149 349.5,340C 345.049,339.87 340.716,339.204 336.5,338C 288.265,337.132 240.265,340.132 192.5,347C 176.562,347.363 162.562,352.53 150.5,362.5C 149.833,362.5 149.5,362.167 149.5,361.5C 157.109,355.194 165.775,350.694 175.5,348C 220.396,340.975 265.563,336.808 311,335.5C 324.589,335.646 338.089,336.813 351.5,339C 371.039,344.903 390.372,351.07 409.5,357.5 Z"/></g>
<g><path style="opacity:0.898" fill="#866211" d="M 150.5,336.5 C 144.735,340.417 139.068,344.584 133.5,349C 129.923,353.066 126.589,357.232 123.5,361.5C 128.958,349.377 137.958,341.043 150.5,336.5 Z"/></g>
<g><path style="opacity:0.302" fill="#836011" d="M 696.5,338.5 C 698.304,337.838 700.304,337.505 702.5,337.5C 732.469,340.415 762.469,342.915 792.5,345C 804.584,346.361 816.251,349.361 827.5,354C 830.239,355.026 832.572,356.526 834.5,358.5C 820.487,352.162 805.821,347.996 790.5,346C 759.405,343.965 728.072,341.465 696.5,338.5 Z"/></g>
<g><path style="opacity:0.427" fill="#b27c15" d="M 706.5,345.5 C 722.201,346.15 737.868,347.317 753.5,349C 762.071,355.242 761.237,360.075 751,363.5C 746.632,362.014 742.132,361.181 737.5,361C 728.632,360.792 719.798,360.292 711,359.5C 703.023,360.458 694.857,360.625 686.5,360C 680.417,357.588 679.084,353.588 682.5,348C 690.575,346.897 698.575,346.063 706.5,345.5 Z"/></g>
<g><path style="opacity:0.565" fill="#866212" d="M 695.5,338.5 C 686.578,337.363 677.578,337.196 668.5,338C 648.502,341.666 628.502,345.333 608.5,349C 597.734,351.477 587.401,355.144 577.5,360C 579.066,362.326 580.732,364.492 582.5,366.5C 582.672,367.492 582.338,368.158 581.5,368.5C 579.65,365.313 577.65,362.147 575.5,359C 584.01,355.274 592.677,351.941 601.5,349C 627.48,343.337 653.647,338.837 680,335.5C 683.676,335.731 687.343,336.065 691,336.5C 692.986,336.569 694.486,337.235 695.5,338.5 Z"/></g>
<g><path style="opacity:1" fill="#e4a320" d="M 684.5,348.5 C 703.17,348.333 721.836,348.5 740.5,349C 744.872,349.421 749.205,350.088 753.5,351C 759.55,356.733 758.383,359.9 750,360.5C 728.222,358.488 706.389,357.322 684.5,357C 681.899,354.17 681.899,351.337 684.5,348.5 Z"/></g>
<g><path style="opacity:0.878" fill="#b27c15" d="M 281.5,346.5 C 289.943,346.062 298.277,346.562 306.5,348C 308.504,350.841 309.004,354.007 308,357.5C 306.745,358.211 305.579,359.044 304.5,360C 286.256,360.506 268.089,361.673 250,363.5C 245.167,363.333 240.333,363.167 235.5,363C 229.921,358.155 230.254,353.822 236.5,350C 239.894,349.248 243.227,349.415 246.5,350.5C 258.282,349.076 269.949,347.743 281.5,346.5 Z"/></g>
<g><path style="opacity:1" fill="#e4a320" d="M 272.5,348.5 C 283.172,348.333 293.839,348.5 304.5,349C 308.701,352.523 308.368,355.523 303.5,358C 285.293,358.547 267.126,359.713 249,361.5C 244.432,361.523 239.932,361.023 235.5,360C 232.966,357.413 232.966,354.747 235.5,352C 242.833,351.667 250.167,351.333 257.5,351C 262.728,350.704 267.728,349.871 272.5,348.5 Z"/></g>
<g><path style="opacity:0.427" fill="#b07913" d="M 775.5,350.5 C 780.024,351.336 784.191,353.003 788,355.5C 790.154,359.058 789.654,362.225 786.5,365C 780.164,366.963 774.664,365.463 770,360.5C 769.333,358.833 769.333,357.167 770,355.5C 771.812,353.7 773.645,352.033 775.5,350.5 Z"/></g>
<g><path style="opacity:1" fill="#e2a120" d="M 773.5,353.5 C 778.677,352.703 783.177,354.036 787,357.5C 787.648,361.693 785.815,364.026 781.5,364.5C 776.677,364.494 773.344,362.327 771.5,358C 771.519,356.167 772.185,354.667 773.5,353.5 Z"/></g>
<g><path style="opacity:0.659" fill="#b27c15" d="M 204.5,355.5 C 208.544,354.958 212.211,355.791 215.5,358C 218.501,362.003 217.835,365.336 213.5,368C 206.185,372.474 200.852,370.808 197.5,363C 198.659,359.343 200.992,356.843 204.5,355.5 Z"/></g>
<g><path style="opacity:1" fill="#e3a220" d="M 203.5,357.5 C 206.978,357.184 210.312,357.684 213.5,359C 215.124,362.206 214.458,364.872 211.5,367C 208.167,367.667 204.833,367.667 201.5,367C 198.523,363.053 199.189,359.886 203.5,357.5 Z"/></g>
<g><path style="opacity:0.592" fill="#b37c15" d="M 693.5,371.5 C 699.176,371.334 704.843,371.501 710.5,372C 714.654,376.399 714.321,380.399 709.5,384C 695.411,386.876 681.244,389.376 667,391.5C 658.933,389.824 657.1,385.658 661.5,379C 672.113,375.887 682.78,373.387 693.5,371.5 Z"/></g>
<g><path style="opacity:0.812" fill="#b37c15" d="M 555.5,365.5 C 550.87,361.202 545.203,359.369 538.5,360C 534.788,357.398 533.622,353.898 535,349.5C 537.137,348.521 538.971,347.188 540.5,345.5C 538.726,342.285 537.226,338.952 536,335.5C 533.85,322.229 529.85,309.562 524,297.5C 521.129,293.984 517.629,291.317 513.5,289.5C 508.038,291.982 502.538,294.316 497,296.5C 490.046,293.696 483.213,290.696 476.5,287.5C 473.003,288.155 470.503,290.155 469,293.5C 467.487,302.125 468.654,310.458 472.5,318.5C 481.819,319.168 491.153,319.335 500.5,319C 502.521,319.513 504.021,320.68 505,322.5C 506.458,326.781 505.292,329.947 501.5,332C 491.761,332.137 482.095,332.97 472.5,334.5C 474.119,339.412 476.119,344.079 478.5,348.5C 492.837,348.333 507.171,348.5 521.5,349C 526.967,353.57 526.633,357.57 520.5,361C 501.432,360.976 482.432,361.809 463.5,363.5C 462.779,366.817 462.612,370.151 463,373.5C 463.333,373.167 463.667,372.833 464,372.5C 468.749,373.305 473.582,373.805 478.5,374C 479.966,374.635 481.3,375.469 482.5,376.5C 484.644,381.377 483.311,384.877 478.5,387C 472.484,387.499 466.484,387.332 460.5,386.5C 459.231,392.059 461.231,395.892 466.5,398C 484.134,397.404 501.801,397.404 519.5,398C 523.665,402.352 523.331,406.352 518.5,410C 507.5,410.333 496.5,410.667 485.5,411C 471.647,416.127 466.814,425.627 471,439.5C 477.729,446.429 484.895,452.762 492.5,458.5C 492.5,459.167 492.5,459.833 492.5,460.5C 482.488,453.654 473.988,445.321 467,435.5C 466.333,432.5 466.333,429.5 467,426.5C 468.584,422.325 470.918,418.659 474,415.5C 477.232,412.829 480.732,410.662 484.5,409C 495.5,408.667 506.5,408.333 517.5,408C 521.065,405.822 521.399,403.156 518.5,400C 500.825,399.622 483.158,399.622 465.5,400C 459.893,396.738 457.393,391.904 458,385.5C 465.087,384.685 472.253,384.185 479.5,384C 482.265,381.034 481.932,378.367 478.5,376C 472.509,375.501 466.509,375.334 460.5,375.5C 460.335,372.482 460.502,369.482 461,366.5C 461.163,364.324 461.996,362.491 463.5,361C 482.167,360.667 500.833,360.333 519.5,360C 524.278,357.452 524.611,354.452 520.5,351C 506.5,350.667 492.5,350.333 478.5,350C 476.333,346.5 474.167,343 472,339.5C 470.75,336.923 470.416,334.257 471,331.5C 480.756,330.68 490.59,330.18 500.5,330C 505.368,327.523 505.701,324.523 501.5,321C 491.172,320.5 480.839,320.334 470.5,320.5C 469.492,316.806 468.325,313.139 467,309.5C 466.333,304.167 466.333,298.833 467,293.5C 469.526,287.925 473.693,285.425 479.5,286C 484.553,289.725 490.053,292.558 496,294.5C 500.729,292.559 505.562,290.725 510.5,289C 516.38,289.157 521.214,291.657 525,296.5C 531.178,309.205 535.511,322.538 538,336.5C 539.432,340.531 541.266,344.364 543.5,348C 536.649,348.247 534.815,351.413 538,357.5C 542.414,358.303 546.914,358.803 551.5,359C 553.085,361.069 554.419,363.236 555.5,365.5 Z"/></g>
<g><path style="opacity:1" fill="#e4a220" d="M 695.5,373.5 C 700.179,373.334 704.845,373.501 709.5,374C 712.539,377.805 711.872,380.805 707.5,383C 693.625,384.908 679.792,387.075 666,389.5C 661.794,388.472 660.461,385.805 662,381.5C 662.903,380.299 664.069,379.465 665.5,379C 675.777,377.498 685.777,375.665 695.5,373.5 Z"/></g>
<g><path style="opacity:0.776" fill="#b27c15" d="M 282.5,372.5 C 297.648,372.672 312.981,373.505 328.5,375C 334.937,377.191 336.604,381.191 333.5,387C 331.487,388.257 329.321,389.091 327,389.5C 312.189,388.121 297.356,386.954 282.5,386C 275.982,381.524 275.982,377.024 282.5,372.5 Z"/></g>
<g><path style="opacity:1" fill="#e4a220" d="M 281.5,375.5 C 297.18,375.539 312.847,376.039 328.5,377C 333.449,378.856 334.449,381.856 331.5,386C 315.115,386.742 298.781,386.075 282.5,384C 278.986,381.468 278.653,378.635 281.5,375.5 Z"/></g>
<g><path style="opacity:0.82" fill="#b27c15" d="M 767.5,377.5 C 772.27,377.692 776.937,378.525 781.5,380C 791.794,384.376 802.461,387.876 813.5,390.5C 819.206,393.902 819.873,398.069 815.5,403C 811.833,403.667 808.167,403.667 804.5,403C 792.624,398.696 780.624,394.696 768.5,391C 760.958,386.846 760.625,382.346 767.5,377.5 Z"/></g>
<g><path style="opacity:1" fill="#e4a320" d="M 766.5,379.5 C 771.338,379.421 776.004,380.255 780.5,382C 791.216,386.461 802.216,390.127 813.5,393C 816.306,394.305 817.14,396.472 816,399.5C 814.178,401.045 812.011,401.712 809.5,401.5C 806.118,401.324 802.785,400.824 799.5,400C 789.858,395.752 779.858,392.419 769.5,390C 765.44,387.497 764.44,383.997 766.5,379.5 Z"/></g>
<g><path style="opacity:0.643" fill="#b37c15" d="M 409.5,357.5 C 411.696,357.565 413.696,358.232 415.5,359.5C 414.487,362.203 412.987,364.536 411,366.5C 408.706,364.937 406.206,363.77 403.5,363C 378.682,358.421 353.848,353.921 329,349.5C 325.501,349.479 323.668,351.146 323.5,354.5C 324.293,358.755 326.96,360.922 331.5,361C 357.105,364.725 382.439,369.225 407.5,374.5C 405.868,381.039 404.868,387.706 404.5,394.5C 394.87,391.024 385.204,387.524 375.5,384C 367.217,382.648 359.05,380.814 351,378.5C 344.93,380.28 344.097,383.447 348.5,388C 354.977,390.286 361.644,391.619 368.5,392C 380.712,395.454 392.379,399.954 403.5,405.5C 403.859,407.766 403.192,409.599 401.5,411C 382.082,416.72 363.416,424.053 345.5,433C 338.825,435.281 332.159,437.447 325.5,439.5C 326.058,438.21 327.058,437.377 328.5,437C 333.595,435.62 338.595,433.953 343.5,432C 352.121,428.01 360.787,424.01 369.5,420C 379.181,415.745 389.181,412.412 399.5,410C 400.428,409.612 401.095,408.945 401.5,408C 396.873,404.779 391.873,402.112 386.5,400C 377.899,397.187 369.232,394.687 360.5,392.5C 359.446,392.68 358.446,393.013 357.5,393.5C 356.304,393.154 356.304,392.654 357.5,392C 353.623,391.743 349.957,390.743 346.5,389C 341.879,382.729 343.379,378.562 351,376.5C 359.422,378.585 367.922,380.418 376.5,382C 385.663,385.162 394.663,388.496 403.5,392C 402.941,391.275 402.608,390.442 402.5,389.5C 403.676,385.252 405.009,381.085 406.5,377C 395.885,373.902 385.218,371.235 374.5,369C 358.289,367.349 342.289,364.683 326.5,361C 324.714,360.215 323.214,359.049 322,357.5C 319.96,351.648 321.96,348.315 328,347.5C 351.065,351.722 374.232,355.555 397.5,359C 401.891,361.058 406.391,362.892 411,364.5C 411.635,363.034 412.469,361.7 413.5,360.5C 412.099,359.479 410.765,358.479 409.5,357.5 Z"/></g>
<g><path style="opacity:0.57" fill="#b27b15" d="M 530.5,372.5 C 537.016,371.237 542.516,372.904 547,377.5C 547.753,381.493 546.253,384.326 542.5,386C 527.18,387.197 511.847,387.53 496.5,387C 490.339,383.509 490.006,379.509 495.5,375C 507.305,374 518.972,373.167 530.5,372.5 Z"/></g>
<g><path style="opacity:1" fill="#e4a320" d="M 520.5,375.5 C 527.841,375.334 535.174,375.5 542.5,376C 546.405,378.475 546.405,381.142 542.5,384C 527.182,385.238 511.849,385.571 496.5,385C 492.973,382.697 492.64,380.03 495.5,377C 504.01,376.829 512.343,376.329 520.5,375.5 Z"/></g>
<g><path style="opacity:0.906" fill="#b37c15" d="M 222.5,378.5 C 227.345,378.418 230.679,380.585 232.5,385C 231.578,388.256 229.578,390.589 226.5,392C 214.187,395.2 201.853,398.533 189.5,402C 185.833,402.667 182.167,402.667 178.5,402C 172.801,396.813 173.468,392.479 180.5,389C 194.653,385.795 208.653,382.295 222.5,378.5 Z"/></g>
<g><path style="opacity:1" fill="#e4a320" d="M 217.5,381.5 C 221.182,381.335 224.848,381.501 228.5,382C 230.275,385.394 229.608,388.06 226.5,390C 212.057,393.736 197.557,397.236 183,400.5C 176.879,399.928 175.379,397.095 178.5,392C 191.703,388.703 204.703,385.203 217.5,381.5 Z"/></g>
<g><path style="opacity:0.749" fill="#b37d16" d="M 123.5,361.5 C 120.733,366.701 118.233,372.035 116,377.5C 115.833,381.5 115.667,385.5 115.5,389.5C 116.135,401.704 119.135,413.371 124.5,424.5C 117.328,414.274 113.662,402.774 113.5,390C 112.595,378.876 115.928,369.376 123.5,361.5 Z"/></g>
<g><path style="opacity:0.897" fill="#b27b15" d="M 261.5,397.5 C 285.836,397.333 310.169,397.5 334.5,398C 339.723,398.02 344.723,399.02 349.5,401C 354.151,407.873 352.317,412.039 344,413.5C 328.877,412.006 313.71,411.339 298.5,411.5C 282.16,411.878 265.827,412.045 249.5,412C 245.708,409.947 244.542,406.781 246,402.5C 247.41,401.213 248.91,400.046 250.5,399C 254.356,398.823 258.023,398.323 261.5,397.5 Z"/></g>
<g><path style="opacity:1" fill="#e3a220" d="M 260.5,399.5 C 283.502,399.333 306.502,399.5 329.5,400C 335.957,400.278 342.29,401.278 348.5,403C 351.265,405.966 350.932,408.633 347.5,411C 345.667,411.167 343.833,411.333 342,411.5C 312.363,409.249 282.697,408.916 253,410.5C 248.424,410.264 246.424,407.93 247,403.5C 247.903,402.299 249.069,401.465 250.5,401C 254.025,400.821 257.359,400.321 260.5,399.5 Z"/></g>
<g><path style="opacity:0.896" fill="#b27c15" d="M 656.5,398.5 C 677.836,398.333 699.169,398.5 720.5,399C 728.923,399.84 737.257,401.173 745.5,403C 750.703,410.346 748.703,414.513 739.5,415.5C 732.159,414.733 724.826,413.899 717.5,413C 693.152,412.452 668.819,412.452 644.5,413C 639.782,411.551 638.282,408.385 640,403.5C 640.833,402.667 641.667,401.833 642.5,401C 647.336,400.32 652.003,399.486 656.5,398.5 Z"/></g>
<g><path style="opacity:1" fill="#e4a220" d="M 659.5,400.5 C 687.615,399.617 715.615,400.784 743.5,404C 748.45,410.048 746.95,413.215 739,413.5C 731.793,412.969 724.626,412.136 717.5,411C 692.5,410.667 667.5,410.333 642.5,410C 639.538,406.512 640.205,403.845 644.5,402C 649.684,401.826 654.684,401.326 659.5,400.5 Z"/></g>
<g><path style="opacity:0.733" fill="#e5a21f" d="M 79.5,412.5 C 95.7506,413.428 103.084,422.095 101.5,438.5C 105.517,446.678 110.85,453.845 117.5,460C 123.648,465.571 129.981,470.904 136.5,476C 144.484,471.086 152.818,466.42 161.5,462C 170.601,460.546 175.601,464.379 176.5,473.5C 174.781,480.244 170.781,483.91 164.5,484.5C 161.659,486.086 158.993,487.92 156.5,490C 171.311,499.322 186.811,507.155 203,513.5C 208.833,509.417 215.166,506.417 222,504.5C 230.416,505.391 234.083,510.057 233,518.5C 232.222,520.584 231.055,522.417 229.5,524C 205.365,537.132 184.532,554.299 167,575.5C 163.501,579.672 160.834,584.338 159,589.5C 158.904,593.199 159.404,596.866 160.5,600.5C 159.229,612.937 152.396,619.937 140,621.5C 130.247,620.623 123.581,615.623 120,606.5C 118.122,597.465 120.956,590.299 128.5,585C 131.858,582.797 135.358,580.963 139,579.5C 140.556,574.72 142.889,570.387 146,566.5C 156.461,552.372 168.628,539.872 182.5,529C 167.458,522.064 152.958,514.231 139,505.5C 134.378,509.119 130.045,513.119 126,517.5C 120.759,523.652 115.759,529.985 111,536.5C 109.743,538.513 108.909,540.679 108.5,543C 111.129,558.381 104.629,566.881 89,568.5C 72.5392,563.579 67.2059,552.912 73,536.5C 77.5836,532.079 83.0836,529.579 89.5,529C 98.3281,515.497 108.661,503.163 120.5,492C 110.398,483.901 100.898,475.068 92,465.5C 88.97,461.302 86.1367,456.968 83.5,452.5C 75.7959,453.397 69.9626,450.397 66,443.5C 59.7587,428.37 64.2587,418.037 79.5,412.5 Z"/></g>
<g><path style="opacity:0.361" fill="#b37c14" d="M 205.5,402.5 C 208.649,402.211 211.649,402.711 214.5,404C 221.833,409 229.167,414 236.5,419C 240.68,424.858 239.18,429.025 232,431.5C 223.225,426.385 214.725,420.885 206.5,415C 204.259,413.261 202.592,411.094 201.5,408.5C 202.467,406.21 203.8,404.21 205.5,402.5 Z"/></g>
<g><path style="opacity:1" fill="#e4a320" d="M 205.5,404.5 C 209.131,404.16 212.464,404.994 215.5,407C 222.421,411.71 229.254,416.544 236,421.5C 236.993,427.502 234.493,429.668 228.5,428C 220.298,422.501 212.464,416.668 205,410.5C 204.322,408.402 204.489,406.402 205.5,404.5 Z"/></g>
<g><path style="opacity:0.341" fill="#b37c15" d="M 780.5,405.5 C 786.618,406.118 789.118,409.452 788,415.5C 779.465,422.105 770.132,427.438 760,431.5C 752.109,427.781 751.609,423.281 758.5,418C 766.049,414.063 773.383,409.896 780.5,405.5 Z"/></g>
<g><path style="opacity:1" fill="#e3a220" d="M 778.5,408.5 C 785.997,407.804 787.997,410.637 784.5,417C 777.198,420.651 769.864,424.318 762.5,428C 755.095,428.381 753.761,425.714 758.5,420C 765.425,416.379 772.091,412.545 778.5,408.5 Z"/></g>
<g><path style="opacity:0.514" fill="#b27c17" d="M 857.5,350.5 C 866.544,357.044 874.044,365.044 880,374.5C 886.538,389.824 885.871,404.824 878,419.5C 866.362,435.063 851.529,446.396 833.5,453.5C 843.24,447.622 852.907,441.455 862.5,435C 884.465,415.573 888.299,393.073 874,367.5C 868.248,361.917 862.748,356.251 857.5,350.5 Z"/></g>
<g><path style="opacity:0.047" fill="#886013" d="M 125.5,426.5 C 130.099,432.438 135.099,438.105 140.5,443.5C 133.727,439.394 128.727,433.727 125.5,426.5 Z"/></g>
<g><path style="opacity:0.047" fill="#866010" d="M 146.5,417.5 C 146.351,418.552 146.517,419.552 147,420.5C 150.042,423.933 153.542,426.766 157.5,429C 170.228,434.368 182.561,440.201 194.5,446.5C 180.901,441.353 167.568,435.52 154.5,429C 150.598,426.6 147.598,423.434 145.5,419.5C 145.328,418.508 145.662,417.842 146.5,417.5 Z"/></g>
<g><path style="opacity:0.767" fill="#b27b14" d="M 482.5,426.5 C 488.842,426.334 495.175,426.5 501.5,427C 506.809,431.047 506.809,435.047 501.5,439C 495.167,439.667 488.833,439.667 482.5,439C 478.708,436.947 477.542,433.781 479,429.5C 480.518,428.837 481.685,427.837 482.5,426.5 Z"/></g>
<g><path style="opacity:1" fill="#e3a220" d="M 482.5,428.5 C 488.509,428.334 494.509,428.501 500.5,429C 503.306,430.305 504.14,432.472 503,435.5C 502.097,436.701 500.931,437.535 499.5,438C 494.167,438.667 488.833,438.667 483.5,438C 479.956,435.127 479.623,431.96 482.5,428.5 Z"/></g>
<g><path style="opacity:0.936" fill="#b27c15" d="M 555.5,365.5 C 558.161,368.171 560.494,371.171 562.5,374.5C 557.414,376.41 556.247,379.743 559,384.5C 562.057,385.451 565.223,385.784 568.5,385.5C 569.707,389.786 570.707,394.12 571.5,398.5C 557.512,399.176 543.512,399.676 529.5,400C 526.068,402.367 525.735,405.034 528.5,408C 543.496,408.5 558.496,408.667 573.5,408.5C 572.86,415.09 571.193,421.424 568.5,427.5C 551.176,428.333 533.843,428.833 516.5,429C 513.689,432.294 514.022,435.294 517.5,438C 528.495,438.5 539.495,438.667 550.5,438.5C 549.064,442.957 546.73,446.957 543.5,450.5C 532.833,451.167 522.167,451.833 511.5,452.5C 509.96,455.291 510.294,457.791 512.5,460C 517.736,461.339 523.07,461.839 528.5,461.5C 525.275,471.761 518.608,477.427 508.5,478.5C 510.553,478.598 512.22,477.931 513.5,476.5C 514.167,476.5 514.5,476.167 514.5,475.5C 520.32,473.178 524.32,469.011 526.5,463C 521.833,462.667 517.167,462.333 512.5,462C 507.231,457.819 507.231,453.819 512.5,450C 522.517,449.832 532.517,449.332 542.5,448.5C 544.953,445.759 547.286,442.925 549.5,440C 538.568,440.386 527.568,440.052 516.5,439C 511.182,434.951 511.182,430.951 516.5,427C 533.51,426.833 550.51,426.333 567.5,425.5C 569.928,420.787 571.262,415.787 571.5,410.5C 557.163,410.667 542.829,410.5 528.5,410C 522.89,405.088 523.556,401.088 530.5,398C 543.514,397.687 556.514,397.187 569.5,396.5C 568.833,393.5 568.167,390.5 567.5,387.5C 564.351,387.789 561.351,387.289 558.5,386C 553.56,381.397 554.227,377.397 560.5,374C 558.432,371.358 556.765,368.525 555.5,365.5 Z"/></g>
<g><path style="opacity:0.82" fill="#b37d15" d="M 834.5,358.5 C 841.34,360.137 843.507,364.137 841,370.5C 839.371,373.626 837.205,376.293 834.5,378.5C 828.518,373.509 822.185,369.009 815.5,365C 810,363.833 807.833,366 809,371.5C 814.31,375.309 819.476,379.309 824.5,383.5C 828.274,387.805 829.44,392.805 828,398.5C 826.254,402.327 824.254,405.993 822,409.5C 812.005,418.495 801.172,426.328 789.5,433C 767.131,444.733 745.298,457.233 724,470.5C 723.157,476.192 725.657,478.359 731.5,477C 753.5,464.667 775.5,452.333 797.5,440C 806.515,434.493 815.182,428.493 823.5,422C 828.266,417.6 832.433,412.767 836,407.5C 840.704,409.211 844.538,412.044 847.5,416C 847.43,416.765 847.097,417.265 846.5,417.5C 846.5,416.833 846.167,416.5 845.5,416.5C 843.13,412.817 839.797,410.984 835.5,411C 833.167,414 830.833,417 828.5,420C 820.858,426.487 812.858,432.487 804.5,438C 780.445,451.691 756.445,465.357 732.5,479C 730.167,479.667 727.833,479.667 725.5,479C 721.108,476.037 720.441,472.37 723.5,468C 744.965,455.765 766.631,443.765 788.5,432C 800.129,425.269 810.962,417.435 821,408.5C 822.935,405.629 824.601,402.629 826,399.5C 828.004,392.363 826.171,386.53 820.5,382C 814.216,379.043 809.216,374.71 805.5,369C 807.013,363.912 810.347,361.912 815.5,363C 822.185,367.009 828.518,371.509 834.5,376.5C 838.567,373.042 840.4,368.708 840,363.5C 837.809,362.167 835.976,360.5 834.5,358.5 Z"/></g>
<g><path style="opacity:0.549" fill="#b47c15" d="M 418.5,449.5 C 421.25,447.992 422.084,445.659 421,442.5C 415.008,444.745 409.175,447.411 403.5,450.5C 399.633,449.466 397.3,446.966 396.5,443C 398.833,439.167 401.167,435.333 403.5,431.5C 402.459,428.489 402.292,425.489 403,422.5C 393.649,426.175 384.149,429.675 374.5,433C 354.22,442.762 333.22,450.762 311.5,457C 301.229,459.231 291.229,459.564 281.5,458C 268.127,452.899 256.294,445.399 246,435.5C 245.612,426.608 249.446,424.108 257.5,428C 262.694,432.027 268.027,435.86 273.5,439.5C 277.24,441.691 281.24,443.191 285.5,444C 299.038,444.328 312.371,442.828 325.5,439.5C 311.88,445.182 297.547,447.349 282.5,446C 272.52,441.01 263.187,435.01 254.5,428C 248.498,427.007 246.332,429.507 248,435.5C 257.915,444.423 269.082,451.256 281.5,456C 289.167,456.667 296.833,456.667 304.5,456C 312.611,454.426 320.611,452.426 328.5,450C 350.913,440.979 373.246,431.979 395.5,423C 398.513,422.498 401.513,421.998 404.5,421.5C 404.666,426.511 404.499,431.511 404,436.5C 398.434,438.722 397.267,442.222 400.5,447C 406.094,447.472 411.094,445.805 415.5,442C 417.81,441.503 420.143,441.337 422.5,441.5C 422.5,444.167 422.5,446.833 422.5,449.5C 421.167,449.5 419.833,449.5 418.5,449.5 Z"/></g>
<g><path style="opacity:0.531" fill="#b37c15" d="M 612.5,444.5 C 622.083,447.307 631.583,450.64 641,454.5C 647.465,458.142 647.965,462.308 642.5,467C 639.833,467.667 637.167,467.667 634.5,467C 627.167,464 619.833,461 612.5,458C 607.234,453.455 607.234,448.955 612.5,444.5 Z"/></g>
<g><path style="opacity:1" fill="#e4a220" d="M 612.5,446.5 C 614.199,446.34 615.866,446.506 617.5,447C 626.197,450.734 634.864,454.567 643.5,458.5C 645.031,464.466 642.698,466.632 636.5,465C 628.611,461.813 620.611,458.813 612.5,456C 609.875,452.763 609.875,449.596 612.5,446.5 Z"/></g>
<g><path style="opacity:0.875" fill="#b47c15" d="M 643.5,392.5 C 632.067,395.632 620.4,398.132 608.5,400C 603.944,401.972 599.278,403.639 594.5,405C 604.37,410.211 613.704,416.211 622.5,423C 634.816,430.217 647.816,435.884 661.5,440C 670.531,442.481 679.698,444.314 689,445.5C 698.383,444.684 707.55,442.851 716.5,440C 723.81,435.847 731.144,432.014 738.5,428.5C 747.517,430.885 748.517,435.219 741.5,441.5C 723.637,454.254 703.804,460.254 682,459.5C 664.044,455.633 646.544,450.133 629.5,443C 617.071,435.57 604.904,427.736 593,419.5C 592.333,425.833 592.333,432.167 593,438.5C 595.271,441.12 595.938,444.12 595,447.5C 590.49,451.355 585.99,451.355 581.5,447.5C 581.5,446.833 581.167,446.5 580.5,446.5C 580.56,445.957 580.893,445.624 581.5,445.5C 585.177,448.87 589.011,449.203 593,446.5C 593.758,442.671 592.758,439.338 590,436.5C 589.007,429.918 589.84,423.584 592.5,417.5C 604.176,425.004 615.843,432.504 627.5,440C 644.59,447.251 662.257,452.918 680.5,457C 703.86,458.454 724.694,451.954 743,437.5C 743.306,430.463 740.139,428.629 733.5,432C 714.866,445.478 694.199,449.812 671.5,445C 659.729,441.28 648.062,437.28 636.5,433C 624.902,426.396 613.569,419.396 602.5,412C 599.222,410.191 595.889,408.691 592.5,407.5C 592.343,406.127 592.51,404.793 593,403.5C 594.816,402.671 596.649,401.837 598.5,401C 613.486,397.225 628.486,393.559 643.5,390C 645.5,389.333 647.5,388.667 649.5,388C 650.982,385.408 650.648,383.075 648.5,381C 629.052,382.465 610.052,386.298 591.5,392.5C 588.49,387.825 587.156,382.825 587.5,377.5C 596.932,373.56 606.599,370.393 616.5,368C 631.443,365.009 646.443,362.343 661.5,360C 665.104,358.666 666.271,356.166 665,352.5C 663.701,351.02 662.034,350.354 660,350.5C 638.975,353.372 618.142,357.538 597.5,363C 592.294,364.68 587.294,366.847 582.5,369.5C 581.893,369.376 581.56,369.043 581.5,368.5C 582.338,368.158 582.672,367.492 582.5,366.5C 608.998,356.695 636.331,350.862 664.5,349C 669.994,353.509 669.661,357.509 663.5,361C 650.335,364.313 637.001,366.813 623.5,368.5C 611.186,371.662 599.186,375.495 587.5,380C 589.044,382.999 590.211,386.166 591,389.5C 591.561,390.022 592.228,390.355 593,390.5C 611.161,383.831 629.994,379.998 649.5,379C 650.333,379.833 651.167,380.667 652,381.5C 652.732,387.934 649.899,391.6 643.5,392.5 Z"/></g>
<g><path style="opacity:0.512" fill="#b27c15" d="M 146.5,417.5 C 145.662,417.842 145.328,418.508 145.5,419.5C 143.946,416.015 144.613,412.848 147.5,410C 148.5,409.333 149.5,409.333 150.5,410C 165.744,421.457 182.077,431.124 199.5,439C 221.104,453.307 243.604,465.807 267,476.5C 273.504,474.315 274.004,471.148 268.5,467C 248.714,457.277 229.714,446.277 211.5,434C 194.767,426.222 178.933,417.056 164,406.5C 161.952,387.564 169.952,375.231 188,369.5C 189.257,364.422 187.257,362.089 182,362.5C 179.409,362.565 176.909,363.065 174.5,364C 169.667,367.341 165,370.841 160.5,374.5C 154.863,372.197 150.863,368.197 148.5,362.5C 148.624,361.893 148.957,361.56 149.5,361.5C 149.5,362.167 149.833,362.5 150.5,362.5C 152.762,367.264 156.262,370.931 161,373.5C 166.47,366.088 173.803,361.421 183,359.5C 184.419,360.46 185.919,361.293 187.5,362C 190.545,364.448 191.045,367.281 189,370.5C 184.55,373.073 180.05,375.573 175.5,378C 166.577,385.603 163.577,395.103 166.5,406.5C 180.674,415.423 195.34,423.59 210.5,431C 229.493,444.171 249.493,455.838 270.5,466C 272.448,467.439 273.781,469.272 274.5,471.5C 272.636,477.931 268.636,479.765 262.5,477C 243.54,468.191 225.54,457.858 208.5,446C 187.808,435.906 167.974,424.406 149,411.5C 147.337,413.158 146.504,415.158 146.5,417.5 Z"/></g>
<g><path style="opacity:0.063" fill="#855d14" d="M 833.5,453.5 C 829.858,456.987 825.858,459.987 821.5,462.5C 820.761,462.631 820.094,462.464 819.5,462C 824.056,458.893 828.723,456.06 833.5,453.5 Z"/></g>
<g><path style="opacity:0.661" fill="#b27c15" d="M 384.5,441.5 C 389.533,441.198 392.533,443.531 393.5,448.5C 392.408,451.094 390.741,453.261 388.5,455C 378.719,458.813 369.052,462.813 359.5,467C 353.613,468.565 350.28,466.398 349.5,460.5C 349.598,458.063 350.598,456.063 352.5,454.5C 363.357,450.116 374.023,445.783 384.5,441.5 Z"/></g>
<g><path style="opacity:1" fill="#e4a220" d="M 382.5,443.5 C 389.488,442.648 391.822,445.481 389.5,452C 378.68,457.332 367.513,461.832 356,465.5C 351.794,464.472 350.461,461.805 352,457.5C 357.331,454.029 363.164,451.529 369.5,450C 374.192,448.287 378.525,446.12 382.5,443.5 Z"/></g>
<g><path style="opacity:0.714" fill="#9c6c1d" d="M 514.5,475.5 C 514.5,476.167 514.167,476.5 513.5,476.5C 512.22,477.931 510.553,478.598 508.5,478.5C 503.538,472.203 498.205,466.203 492.5,460.5C 492.5,459.833 492.5,459.167 492.5,458.5C 493.117,458.611 493.617,458.944 494,459.5C 494.079,455.642 494.746,451.976 496,448.5C 497.44,449.93 497.774,451.597 497,453.5C 496.667,452.5 496.333,451.5 496,450.5C 495.233,454.558 495.4,458.558 496.5,462.5C 498.817,464.316 500.984,466.316 503,468.5C 503.119,464.99 504.286,461.99 506.5,459.5C 507.172,464.139 507.338,468.806 507,473.5C 507.615,475.116 508.615,476.449 510,477.5C 512.257,473.317 514.257,468.984 516,464.5C 517.373,464.596 518.873,464.43 520.5,464C 518.36,467.781 516.36,471.615 514.5,475.5 Z"/></g>
<g><path style="opacity:0.863" fill="#8a6313" d="M 845.5,416.5 C 846.167,416.5 846.5,416.833 846.5,417.5C 816.904,441.739 784.904,462.406 750.5,479.5C 784.044,461.281 815.711,440.281 845.5,416.5 Z"/></g>
<g><path style="opacity:0.643" fill="#876213" d="M 194.5,446.5 C 213.432,454.963 231.432,464.963 248.5,476.5C 230.492,466.496 212.492,456.496 194.5,446.5 Z"/></g>
<g><path style="opacity:0.302" fill="#b47d15" d="M 335.5,458.5 C 342.329,457.828 345.163,460.828 344,467.5C 330.191,481.082 313.691,485.915 294.5,482C 287.89,477.589 287.89,473.256 294.5,469C 309.838,471.455 323.505,467.955 335.5,458.5 Z"/></g>
<g><path style="opacity:1" fill="#e4a320" d="M 334.5,460.5 C 340.496,459.333 342.996,461.666 342,467.5C 328.13,478.927 312.296,483.093 294.5,480C 291.068,477.633 290.735,474.966 293.5,472C 306.809,473.512 319.142,470.846 330.5,464C 332.093,463.051 333.426,461.885 334.5,460.5 Z"/></g>
<g><path style="opacity:0.576" fill="#b37d16" d="M 657.5,463.5 C 668.525,464.951 679.525,466.618 690.5,468.5C 694.336,468.633 698.002,467.967 701.5,466.5C 707.631,468.094 709.464,471.761 707,477.5C 705.282,478.85 703.448,480.017 701.5,481C 686.195,483.141 671.529,481.141 657.5,475C 653.527,471.047 653.527,467.213 657.5,463.5 Z"/></g>
<g><path style="opacity:1" fill="#e4a220" d="M 658.5,464.5 C 660.857,464.337 663.19,464.503 665.5,465C 668.958,466.786 672.624,468.119 676.5,469C 686.167,469.333 695.833,469.667 705.5,470C 707.24,475.289 705.24,478.289 699.5,479C 690.454,479.807 681.454,479.474 672.5,478C 667.071,477.23 662.071,475.397 657.5,472.5C 656.102,469.565 656.435,466.898 658.5,464.5 Z"/></g>
<g><path style="opacity:0.592" fill="#896212" d="M 805.5,472.5 C 790.325,481.997 774.658,490.664 758.5,498.5C 773.1,490.53 787.433,482.03 801.5,473C 802.946,471.702 804.279,471.535 805.5,472.5 Z"/></g>
<g><path style="opacity:0.047" fill="#855e10" d="M 201.5,473.5 C 209.02,476.708 216.02,480.708 222.5,485.5C 215.004,482.255 208.004,478.255 201.5,473.5 Z"/></g>
<g><path style="opacity:0.651" fill="#8e6813" d="M 640.5,504.5 C 620.795,497.397 601.628,489.064 583,479.5C 583.046,482.8 583.212,486.134 583.5,489.5C 581.041,485.466 580.041,481.132 580.5,476.5C 600.35,486.429 620.35,495.762 640.5,504.5 Z"/></g>
<g><path style="opacity:0.702" fill="#846412" d="M 222.5,485.5 C 227.5,487.664 232.167,490.331 236.5,493.5C 231.173,491.841 226.507,489.174 222.5,485.5 Z"/></g>
<g><path style="opacity:0.047" fill="#856012" d="M 580.5,446.5 C 581.167,446.5 581.5,446.833 581.5,447.5C 580.636,448.688 579.636,449.855 578.5,451C 578.833,451.333 579.167,451.667 579.5,452C 607.213,467.245 635.88,480.578 665.5,492C 671.79,493.823 678.123,495.489 684.5,497C 697.592,499.042 710.259,497.376 722.5,492C 730.415,488.207 738.415,484.707 746.5,481.5C 730.81,491.564 713.643,497.564 695,499.5C 683.442,498.819 672.275,496.319 661.5,492C 636.08,481.636 611.08,470.302 586.5,458C 583.922,455.793 581.089,453.96 578,452.5C 577.638,450.021 578.471,448.021 580.5,446.5 Z"/></g>
<g><path style="opacity:0.643" fill="#896113" d="M 418.5,449.5 C 407.351,454.059 396.018,458.559 384.5,463C 370.148,471.177 355.482,478.843 340.5,486C 308.088,499.114 277.421,495.947 248.5,476.5C 255.437,479.632 262.437,482.799 269.5,486C 292.978,494.887 316.311,494.553 339.5,485C 354.482,477.843 369.148,470.177 383.5,462C 394.936,457.133 406.603,452.966 418.5,449.5 Z"/></g>
<g><path style="opacity:0.945" fill="#b37d17" d="M 414.5,472.5 C 415.302,471.115 415.969,471.282 416.5,473C 415.007,476.132 413.507,479.299 412,482.5C 401.906,495.628 389.072,504.961 373.5,510.5C 381.603,505.944 389.603,501.11 397.5,496C 405.009,489.779 410.676,482.279 414.5,473.5C 415.833,473.167 415.833,472.833 414.5,472.5 Z"/></g>
<g><path style="opacity:0.475" fill="#b17b16" d="M 532.5,533.5 C 533.167,532.833 533.833,532.167 534.5,531.5C 535.458,531.047 536.292,530.381 537,529.5C 540.844,530.876 544.844,531.543 549,531.5C 557.826,530.884 566.66,530.384 575.5,530C 573.773,527.096 573.107,523.93 573.5,520.5C 565.167,520.5 556.833,520.5 548.5,520.5C 548.158,519.662 547.492,519.328 546.5,519.5C 544.408,519.439 542.908,518.439 542,516.5C 540.709,512.328 541.876,509.161 545.5,507C 549.167,506.667 552.833,506.333 556.5,506C 554.959,504.629 553.625,503.129 552.5,501.5C 543.546,500.427 534.546,499.76 525.5,499.5C 519.055,499.068 512.888,500.068 507,502.5C 505.961,501.756 505.461,500.756 505.5,499.5C 498.246,498.37 490.913,498.204 483.5,499C 486.044,500.099 486.044,501.265 483.5,502.5C 476.851,500.141 470.017,498.474 463,497.5C 455.818,498.574 448.651,499.74 441.5,501C 439.023,502.643 436.69,504.476 434.5,506.5C 457.493,507.333 480.493,507.833 503.5,508C 508.749,512.38 508.749,516.713 503.5,521C 496.842,521.5 490.175,521.666 483.5,521.5C 482.167,521.5 480.833,521.5 479.5,521.5C 469.5,521.5 459.5,521.5 449.5,521.5C 448.5,521.5 447.5,521.5 446.5,521.5C 438.429,521.137 430.429,521.637 422.5,523C 421.802,525.454 420.802,527.787 419.5,530C 432.496,529.797 445.496,529.297 458.5,528.5C 461.833,528.5 465.167,528.5 468.5,528.5C 470.167,528.5 471.833,528.5 473.5,528.5C 474.528,528.926 475.861,528.926 477.5,528.5C 480.518,528.335 483.518,528.502 486.5,529C 492.635,531.89 493.635,535.89 489.5,541C 484.966,542.813 480.299,543.98 475.5,544.5C 475.5,543.833 475.167,543.5 474.5,543.5C 472.526,545.293 470.36,546.96 468,548.5C 466.941,548.37 466.108,547.87 465.5,547C 466.337,545.989 466.67,544.822 466.5,543.5C 465.167,543.5 463.833,543.5 462.5,543.5C 461.5,543.5 460.5,543.5 459.5,543.5C 454.821,543.334 450.155,543.501 445.5,544C 442.395,545.868 439.062,547.035 435.5,547.5C 435.36,545.876 436.027,544.71 437.5,544C 430.503,543.922 423.503,544.256 416.5,545C 417.456,548.394 417.789,551.894 417.5,555.5C 425.49,554.977 433.49,554.644 441.5,554.5C 442.5,554.5 443.5,554.5 444.5,554.5C 444.833,554.5 445.167,554.5 445.5,554.5C 446.5,554.5 447.5,554.5 448.5,554.5C 449.492,554.672 450.158,554.338 450.5,553.5C 453.167,553.5 455.833,553.5 458.5,553.5C 466.984,554.493 475.651,554.826 484.5,554.5C 461.978,555.411 439.312,556.244 416.5,557C 416,556.5 415.5,556 415,555.5C 414.204,551.245 414.371,547.079 415.5,543C 438.482,541.837 461.482,541.17 484.5,541C 490.279,538.773 490.946,535.439 486.5,531C 463.83,530.579 441.164,530.746 418.5,531.5C 418.121,527.424 419.121,523.757 421.5,520.5C 448.494,519.667 475.494,519.167 502.5,519C 506.482,515.952 506.482,512.952 502.5,510C 478.493,509.833 454.493,509.333 430.5,508.5C 434.167,504.5 437.833,500.5 441.5,496.5C 460.158,495.334 478.824,495.167 497.5,496C 521.477,497.544 545.477,498.544 569.5,499C 570.645,502.122 571.645,505.289 572.5,508.5C 563.494,508.334 554.494,508.5 545.5,509C 542.887,511.795 542.887,514.629 545.5,517.5C 555.478,518.499 565.478,518.832 575.5,518.5C 576.314,523.119 576.647,527.786 576.5,532.5C 561.842,533.155 547.176,533.488 532.5,533.5 Z M 552.5,501.5 C 555.412,501.789 557.412,503.289 558.5,506C 562.5,506.667 566.5,506.667 570.5,506C 569.139,504.416 568.472,502.582 568.5,500.5C 562.974,500.179 557.64,500.512 552.5,501.5 Z M 548.5,520.5 C 556.833,520.5 565.167,520.5 573.5,520.5C 573.107,523.93 573.773,527.096 575.5,530C 566.66,530.384 557.826,530.884 549,531.5C 544.844,531.543 540.844,530.876 537,529.5C 536.292,530.381 535.458,531.047 534.5,531.5C 530.486,531.666 526.486,531.499 522.5,531C 521.944,530.617 521.611,530.117 521.5,529.5C 525.829,530.572 530.162,530.405 534.5,529C 539.361,526.407 544.028,523.573 548.5,520.5 Z M 446.5,521.5 C 450.204,524.352 454.204,526.685 458.5,528.5C 445.496,529.297 432.496,529.797 419.5,530C 420.802,527.787 421.802,525.454 422.5,523C 430.429,521.637 438.429,521.137 446.5,521.5 Z M 480.5,523.5 C 478.343,525.412 476.009,527.079 473.5,528.5C 471.833,528.5 470.167,528.5 468.5,528.5C 472.261,526.462 476.261,524.796 480.5,523.5 Z M 449.5,521.5 C 459.5,521.5 469.5,521.5 479.5,521.5C 469.379,528.887 459.379,528.887 449.5,521.5 Z M 467.5,543.5 C 467.281,544.675 467.614,545.675 468.5,546.5C 472.755,544.135 472.421,543.135 467.5,543.5 Z M 511.5,524.5 C 513.819,524.992 515.819,525.992 517.5,527.5C 514.911,527.539 512.911,526.539 511.5,524.5 Z"/></g>
<g><path style="opacity:0.824" fill="#866212" d="M 414.5,472.5 C 415.833,472.833 415.833,473.167 414.5,473.5C 408.854,475.653 403.188,477.82 397.5,480C 382.167,488 366.833,496 351.5,504C 325.177,515.927 298.177,517.927 270.5,510C 264.252,508.537 258.585,506.037 253.5,502.5C 284.61,516.589 315.943,517.089 347.5,504C 364.625,495.604 381.625,486.937 398.5,478C 403.756,475.859 409.09,474.026 414.5,472.5 Z"/></g>
<g><path style="opacity:0.863" fill="#b37d16" d="M 584.5,489.5 C 589.329,494.932 594.996,499.432 601.5,503C 610.127,507.18 618.793,511.013 627.5,514.5C 611.719,511.359 597.885,504.359 586,493.5C 585.209,492.255 584.709,490.922 584.5,489.5 Z"/></g>
<g><path style="opacity:0.592" fill="#886313" d="M 640.5,504.5 C 657.532,512.231 675.365,517.231 694,519.5C 702.351,519.025 710.518,517.525 718.5,515C 725.906,512.587 733.239,510.087 740.5,507.5C 721.893,518.316 701.893,522.149 680.5,519C 666.25,516.286 652.917,511.452 640.5,504.5 Z"/></g>
<g><path style="opacity:0.09" fill="#876022" d="M 432.5,522.5 C 435.518,522.335 438.518,522.502 441.5,523C 444.079,524.709 443.746,525.876 440.5,526.5C 439.833,526.333 439.167,526.167 438.5,526C 442.232,525.028 441.899,524.528 437.5,524.5C 432.226,524.687 432.226,525.187 437.5,526C 434.947,526.851 432.614,526.518 430.5,525C 431.381,524.292 432.047,523.458 432.5,522.5 Z"/></g>
<g><path style="opacity:0.09" fill="#896524" d="M 549.5,522.5 C 552.85,522.335 556.183,522.502 559.5,523C 560.337,524.011 560.67,525.178 560.5,526.5C 557.813,526.664 555.146,526.497 552.5,526C 555.937,525.351 556.104,524.851 553,524.5C 551.674,524.755 550.674,525.422 550,526.5C 548.232,525.318 548.065,523.985 549.5,522.5 Z"/></g>
<g><path style="opacity:0.063" fill="#916e30" d="M 446.5,521.5 C 447.5,521.5 448.5,521.5 449.5,521.5C 459.379,528.887 469.379,528.887 479.5,521.5C 480.833,521.5 482.167,521.5 483.5,521.5C 482.19,524.473 480.19,526.807 477.5,528.5C 475.861,528.926 474.528,528.926 473.5,528.5C 476.009,527.079 478.343,525.412 480.5,523.5C 476.261,524.796 472.261,526.462 468.5,528.5C 465.167,528.5 461.833,528.5 458.5,528.5C 454.204,526.685 450.204,524.352 446.5,521.5 Z M 480.5,523.5 C 478.343,525.412 476.009,527.079 473.5,528.5C 471.833,528.5 470.167,528.5 468.5,528.5C 472.261,526.462 476.261,524.796 480.5,523.5 Z M 449.5,521.5 C 459.5,521.5 469.5,521.5 479.5,521.5C 469.379,528.887 459.379,528.887 449.5,521.5 Z"/></g>
<g><path style="opacity:0.659" fill="#a4751e" d="M 546.5,519.5 C 547.492,519.328 548.158,519.662 548.5,520.5C 544.028,523.573 539.361,526.407 534.5,529C 530.162,530.405 525.829,530.572 521.5,529.5C 521.611,530.117 521.944,530.617 522.5,531C 526.486,531.499 530.486,531.666 534.5,531.5C 533.833,532.167 533.167,532.833 532.5,533.5C 526.824,533.334 521.157,533.501 515.5,534C 511.128,536.195 510.461,539.195 513.5,543C 534.505,543.5 555.505,543.333 576.5,542.5C 576.206,546.1 575.54,549.6 574.5,553C 544.51,552.784 514.51,553.284 484.5,554.5C 475.651,554.826 466.984,554.493 458.5,553.5C 460.175,551.998 462.008,550.665 464,549.5C 465.617,550.536 465.784,551.703 464.5,553C 467.146,553.497 469.813,553.664 472.5,553.5C 473.04,550.135 473.706,546.802 474.5,543.5C 475.167,543.5 475.5,543.833 475.5,544.5C 475.38,547.48 474.713,550.313 473.5,553C 476.482,553.498 479.482,553.665 482.5,553.5C 482.167,551.5 481.833,549.5 481.5,547.5C 478.442,547.626 478.109,549.126 480.5,552C 478.529,551.99 477.529,550.824 477.5,548.5C 478.024,545.604 479.524,544.937 482,546.5C 482.885,549 484.052,551.333 485.5,553.5C 486.72,552.289 487.887,552.289 489,553.5C 495.085,552.688 501.252,552.188 507.5,552C 508.669,549.993 509.335,547.827 509.5,545.5C 510.5,545.5 511.5,545.5 512.5,545.5C 509.153,541.71 508.486,537.376 510.5,532.5C 513.839,532.11 517.173,531.61 520.5,531C 514.946,530.225 510.946,527.392 508.5,522.5C 509,522.167 509.5,521.833 510,521.5C 515.605,524.814 521.605,527.147 528,528.5C 535.087,527.206 541.254,524.206 546.5,519.5 Z M 511.5,524.5 C 513.819,524.992 515.819,525.992 517.5,527.5C 514.911,527.539 512.911,526.539 511.5,524.5 Z M 570.5,544.5 C 566.018,545.326 561.351,545.826 556.5,546C 555.892,546.87 555.059,547.37 554,547.5C 548.305,545.575 542.471,545.075 536.5,546C 539.167,547.667 541.833,549.333 544.5,551C 553.195,551.223 561.861,551.723 570.5,552.5C 571.167,552.167 571.833,551.833 572.5,551.5C 573.106,549.291 573.773,547.124 574.5,545C 573.207,544.51 571.873,544.343 570.5,544.5 Z M 512.5,545.5 C 513.694,547.484 513.694,549.484 512.5,551.5C 511.887,550.02 511.554,548.687 511.5,547.5C 510.643,548.736 509.977,550.069 509.5,551.5C 512.167,552.833 514.833,552.833 517.5,551.5C 517.537,549.678 517.204,547.678 516.5,545.5C 515.167,545.5 513.833,545.5 512.5,545.5 Z M 529.5,551.5 C 532.518,551.665 535.518,551.498 538.5,551C 536.668,550.252 535.001,549.252 533.5,548C 529.696,544.647 526.196,544.813 523,548.5C 521.758,547.128 520.258,546.128 518.5,545.5C 518.295,547.552 518.295,549.886 518.5,552.5C 522.111,552.956 525.444,552.289 528.5,550.5C 529.107,550.624 529.44,550.957 529.5,551.5 Z"/></g>
<g><path style="opacity:0.063" fill="#8e6d2e" d="M 459.5,543.5 C 460.5,543.5 461.5,543.5 462.5,543.5C 462.719,544.675 462.386,545.675 461.5,546.5C 457.599,548.608 453.933,550.941 450.5,553.5C 449.508,553.328 448.842,553.662 448.5,554.5C 447.5,554.5 446.5,554.5 445.5,554.5C 445.167,553.167 444.833,553.167 444.5,554.5C 443.5,554.5 442.5,554.5 441.5,554.5C 447.5,550.833 453.5,547.167 459.5,543.5 Z"/></g>
<g><path style="opacity:0.314" fill="#b17b18" d="M 657.5,624.5 C 644.215,617.293 635.715,606.293 632,591.5C 628.374,577.589 629.874,564.255 636.5,551.5C 623.1,547.775 609.6,544.442 596,541.5C 595.5,541.833 595,542.167 594.5,542.5C 596.569,554.438 598.402,566.438 600,578.5C 604.189,585.555 608.356,592.555 612.5,599.5C 607.14,592.954 602.306,585.954 598,578.5C 596.691,565.405 594.858,552.405 592.5,539.5C 608.029,542.311 623.362,545.978 638.5,550.5C 635.993,554.513 634.16,558.847 633,563.5C 628.338,589.34 636.504,609.673 657.5,624.5 Z"/></g>
<g><path style="opacity:0.782" fill="#b17a16" d="M 627.5,514.5 C 636.31,516.707 644.977,519.54 653.5,523C 657.77,526.394 660.937,530.561 663,535.5C 666.537,563.707 670.371,591.873 674.5,620C 674.925,625.915 672.092,629.082 666,629.5C 663.704,629.141 661.871,628.141 660.5,626.5C 662.126,626.938 663.793,627.272 665.5,627.5C 670.99,627.84 673.657,625.34 673.5,620C 668.906,591.893 664.739,563.727 661,535.5C 660.439,533.275 659.439,531.275 658,529.5C 651.242,522.862 643.075,519.029 633.5,518C 631.111,517.261 629.111,516.095 627.5,514.5 Z"/></g>
<g><path style="opacity:0.733" fill="#e5a21f" d="M 597.5,671.5 C 597.5,671.833 597.5,672.167 597.5,672.5C 597.5,673.167 597.833,673.5 598.5,673.5C 599.653,677.111 600.653,680.777 601.5,684.5C 594.064,691.596 592.564,699.929 597,709.5C 604.639,724.902 616.806,730.402 633.5,726C 651.517,715.801 659.35,700.301 657,679.5C 653.667,668.002 649.834,656.669 645.5,645.5C 645.975,637.359 650.308,633.359 658.5,633.5C 662.565,633.507 665.898,635.007 668.5,638C 696.889,652.092 718.723,645.259 734,617.5C 739.902,601.118 735.402,588.284 720.5,579C 714.369,574.775 708.035,574.442 701.5,578C 699.462,584.544 695.129,588.377 688.5,589.5C 682.387,588.272 678.721,584.605 677.5,578.5C 680.022,566.805 687.022,558.971 698.5,555C 706.651,552.629 714.651,552.629 722.5,555C 743.557,564.561 756.224,580.728 760.5,603.5C 801.738,644.24 843.404,684.407 885.5,724C 905.882,736.958 924.382,734.791 941,717.5C 948.135,706.019 949.135,694.019 944,681.5C 941.057,679.625 937.89,678.125 934.5,677C 921.787,663.795 923.454,652.462 939.5,643C 952.147,640.321 960.313,645.154 964,657.5C 964.886,661.866 964.386,666.033 962.5,670C 975.567,699 969.901,723.667 945.5,744C 919.026,759.01 893.359,757.677 868.5,740C 830.676,702.343 792.343,665.177 753.5,628.5C 747.313,639.356 739.313,648.689 729.5,656.5C 745.167,672.5 760.833,688.5 776.5,704.5C 792.021,702.853 799.854,709.853 800,725.5C 795.196,737.487 786.363,742.654 773.5,741C 765.034,736.584 760.867,729.75 761,720.5C 743.138,702.972 725.638,685.138 708.5,667C 697.776,667.848 687.109,667.515 676.5,666C 677.811,669.354 678.644,672.854 679,676.5C 679.333,682.5 679.667,688.5 680,694.5C 696.467,712.635 713.301,730.469 730.5,748C 744.385,747.538 752.718,754.204 755.5,768C 752.235,784.259 742.568,790.259 726.5,786C 723.051,783.518 719.884,780.685 717,777.5C 714.44,772.701 713.44,767.701 714,762.5C 700.028,747.86 686.028,733.193 672,718.5C 663.089,733.739 650.256,744.239 633.5,750C 671,788.167 708.5,826.333 746,864.5C 763.512,888.829 763.846,913.496 747,938.5C 724.459,965.179 697.625,970.679 666.5,955C 645.335,953.539 638.501,943.039 646,923.5C 657.629,912.594 668.962,912.928 680,924.5C 681.676,929.5 683.176,934.5 684.5,939.5C 707.091,944.955 723.591,937.288 734,916.5C 739.367,901.178 736.7,887.512 726,875.5C 676.941,826.442 628.607,776.775 581,726.5C 570.64,710.153 569.973,693.486 579,676.5C 583.915,670.554 590.081,668.887 597.5,671.5 Z"/></g>
<g><path style="opacity:0.404" fill="#b57d15" d="M 650.5,568.5 C 652.262,568.357 653.929,568.691 655.5,569.5C 658.038,577.668 658.872,586.001 658,594.5C 656.883,596.124 655.383,597.124 653.5,597.5C 650.542,596.792 647.709,595.792 645,594.5C 643.133,588.926 642.133,583.259 642,577.5C 645.285,574.933 648.118,571.933 650.5,568.5 Z M 651.5,570.5 C 649.085,573.616 646.419,576.616 643.5,579.5C 644.23,582.109 644.73,584.776 645,587.5C 646.121,594.08 649.955,596.246 656.5,594C 657.022,593.439 657.355,592.772 657.5,592C 656.048,585.222 654.882,578.389 654,571.5C 653.329,570.748 652.496,570.414 651.5,570.5 Z"/></g>
<g><path style="opacity:0.578" fill="#b57c15" d="M 340.5,564.5 C 344.548,564.395 348.548,564.728 352.5,565.5C 353.778,576.948 351.445,587.615 345.5,597.5C 342.894,598.652 340.227,598.818 337.5,598C 335.82,597.653 334.82,596.653 334.5,595C 336.179,585.556 337.679,576.056 339,566.5C 339.717,565.956 340.217,565.289 340.5,564.5 Z M 343.5,565.5 C 342.34,566.265 341.34,567.265 340.5,568.5C 340.709,569.086 341.043,569.586 341.5,570C 339.833,578.299 338.167,586.633 336.5,595C 338.698,595.373 340.865,595.873 343,596.5C 349.435,587.937 351.601,578.27 349.5,567.5C 347.47,566.828 345.47,566.162 343.5,565.5 Z"/></g>
<g><path style="opacity:0.559" fill="#b07a15" d="M 345.5,520.5 C 342.88,522.105 340.047,523.438 337,524.5C 335.176,528.817 333.509,533.15 332,537.5C 329.89,554.152 327.89,570.819 326,587.5C 324.672,594.108 322.838,600.441 320.5,606.5C 325.546,583.802 328.713,560.802 330,537.5C 331.754,532.786 333.754,528.119 336,523.5C 338.642,520.971 341.808,519.971 345.5,520.5 Z"/></g>
<g><path style="opacity:0.576" fill="#b17b16" d="M 366.5,718.5 C 361.119,724.019 356.286,723.352 352,716.5C 351.241,705.135 351.575,693.801 353,682.5C 357.769,662.534 362.103,642.534 366,622.5C 367.89,615.492 370.556,608.825 374,602.5C 381.296,592.87 389.629,584.203 399,576.5C 399.167,575.667 399.333,574.833 399.5,574C 398.034,564.428 396.368,554.928 394.5,545.5C 383.986,549.885 372.986,551.885 361.5,551.5C 363.45,562.409 363.95,573.409 363,584.5C 357.116,604.886 345.282,620.886 327.5,632.5C 327.369,631.761 327.536,631.094 328,630.5C 341.646,620.522 351.98,607.855 359,592.5C 362.126,582.054 363.126,571.387 362,560.5C 360.531,557.037 359.697,553.37 359.5,549.5C 364.179,549.666 368.845,549.499 373.5,549C 381.449,548.07 389.116,546.403 396.5,544C 397.304,553.364 398.637,562.697 400.5,572C 400.333,573.833 400.167,575.667 400,577.5C 376.315,595.202 363.982,618.868 363,648.5C 355.844,670.26 352.51,692.594 353,715.5C 356.554,720.842 361.054,721.842 366.5,718.5 Z"/></g>
<g><path style="opacity:0.733" fill="#e5a21e" d="M 77.5,612.5 C 91.4352,611.608 100.102,617.775 103.5,631C 100.583,646.614 91.5829,652.281 76.5,648C 66.2369,641.544 63.4036,632.711 68,621.5C 70.4057,617.592 73.5724,614.592 77.5,612.5 Z"/></g>
<g><path style="opacity:0.733" fill="#e5a21e" d="M 894.5,612.5 C 907.465,611.455 914.798,617.455 916.5,630.5C 914.838,642.162 908.171,648.829 896.5,650.5C 884.605,647.477 878.605,639.977 878.5,628C 879.966,625.186 881.466,622.353 883,619.5C 886.814,617.016 890.647,614.682 894.5,612.5 Z"/></g>
<g><path style="opacity:0.798" fill="#b27b14" d="M 420.5,613.5 C 471.169,614.536 521.836,614.536 572.5,613.5C 571.801,617.096 570.801,620.596 569.5,624C 549.196,625.232 528.863,625.899 508.5,626C 506.294,628.209 505.96,630.709 507.5,633.5C 527.148,635.476 546.815,635.809 566.5,634.5C 564.929,639.047 563.263,643.547 561.5,648C 535.514,649.133 509.514,649.8 483.5,650C 478.248,651.594 477.248,654.594 480.5,659C 506.509,659.712 532.509,659.545 558.5,658.5C 555.88,663.523 553.546,668.69 551.5,674C 516.874,674.95 482.207,675.617 447.5,676C 444.841,670.69 443.008,665.19 442,659.5C 449.421,658.684 456.921,658.184 464.5,658C 468.5,655 468.5,652 464.5,649C 455.482,648.832 446.482,648.332 437.5,647.5C 435.556,643.669 434.223,639.669 433.5,635.5C 451.842,635.686 470.175,635.852 488.5,636C 492.373,632.981 492.373,629.981 488.5,627C 467.852,625.773 447.185,625.273 426.5,625.5C 424.904,621.255 422.904,617.255 420.5,613.5 Z M 444.5,661.5 C 450.842,661.666 457.175,661.5 463.5,661C 471.47,656.227 471.47,651.56 463.5,647C 455.16,646.611 446.827,646.778 438.5,647.5C 438.076,643.988 437.076,640.655 435.5,637.5C 453.5,638.092 471.5,638.259 489.5,638C 493.644,635.28 494.477,631.78 492,627.5C 489.834,625.879 487.334,625.045 484.5,625C 465.507,624.051 446.507,623.217 427.5,622.5C 426.365,620.201 425.032,618.034 423.5,616C 468.503,616.428 513.503,616.261 558.5,615.5C 562.5,615.833 566.5,616.167 570.5,616.5C 569.11,618.169 568.777,619.836 569.5,621.5C 566.215,622.324 562.882,622.824 559.5,623C 542.5,623.333 525.5,623.667 508.5,624C 502.109,627.921 502.109,631.921 508.5,636C 527.167,636.333 545.833,636.667 564.5,637C 562.998,640.005 561.998,643.171 561.5,646.5C 535.845,647.245 510.178,647.745 484.5,648C 477.258,648.985 475.091,652.819 478,659.5C 479.885,661.02 482.051,662.02 484.5,662.5C 508.042,663.038 531.542,662.371 555,660.5C 554.305,664.575 552.805,668.409 550.5,672C 516.173,672.962 481.839,673.462 447.5,673.5C 446.5,669.501 445.5,665.501 444.5,661.5 Z"/></g>
<g><path style="opacity:0.678" fill="#b27c16" d="M 594.5,622.5 C 592.801,622.38 591.135,622.046 589.5,621.5C 582.583,642.737 575.083,664.07 567,685.5C 556.756,704.08 543.256,719.913 526.5,733C 516.174,738.836 505.174,743.003 493.5,745.5C 467.033,734.212 446.2,716.212 431,691.5C 423.123,674.405 417.123,656.739 413,638.5C 410.772,633.118 407.938,628.118 404.5,623.5C 408.471,625.719 411.304,629.052 413,633.5C 417.178,647.041 421.178,660.708 425,674.5C 428.553,683.274 432.886,691.607 438,699.5C 449.246,714.081 462.413,726.581 477.5,737C 482.987,738.914 488.321,741.081 493.5,743.5C 501.914,741.477 510.247,738.977 518.5,736C 536.382,725.118 550.549,710.618 561,692.5C 572.037,669.393 580.703,645.393 587,620.5C 589.875,619.509 592.375,620.176 594.5,622.5 Z"/></g>
<g><path style="opacity:0.302" fill="#b47c15" d="M 375.5,656.5 C 380.854,656.657 383.854,659.324 384.5,664.5C 384.577,672.341 382.744,679.675 379,686.5C 374.81,687.751 371.477,686.418 369,682.5C 367.97,680.412 367.137,678.245 366.5,676C 367.745,670.854 368.912,665.687 370,660.5C 371.812,659.023 373.645,657.69 375.5,656.5 Z M 376.5,658.5 C 374.909,659.219 373.409,660.219 372,661.5C 370.846,665.772 370.012,670.106 369.5,674.5C 368.554,681.544 371.554,685.211 378.5,685.5C 380.563,678.682 381.897,671.682 382.5,664.5C 382.403,660.651 380.403,658.651 376.5,658.5 Z"/></g>
<g><path style="opacity:0.779" fill="#b07b17" d="M 623.5,614.5 C 628.25,620.676 631.417,627.676 633,635.5C 634.886,650.468 636.386,665.468 637.5,680.5C 636.778,680.082 636.278,679.416 636,678.5C 634.921,664.808 633.588,651.141 632,637.5C 630.041,629.452 627.208,621.785 623.5,614.5 Z"/></g>
<g><path style="opacity:0.918" fill="#b57c14" d="M 615.5,660.5 C 618.972,660.126 621.972,661.126 624.5,663.5C 625.664,669.472 625.83,675.472 625,681.5C 622.06,685.285 618.227,686.952 613.5,686.5C 612.117,680.765 610.784,674.931 609.5,669C 609.667,667.833 609.833,666.667 610,665.5C 612.328,664.336 614.162,662.67 615.5,660.5 Z M 616.5,662.5 C 614.185,664.63 612.518,667.13 611.5,670C 612.426,674.867 613.426,679.701 614.5,684.5C 619.264,684.574 622.598,682.408 624.5,678C 623.378,673.189 622.378,668.356 621.5,663.5C 619.929,662.691 618.262,662.357 616.5,662.5 Z"/></g>
<g><path style="opacity:0.89" fill="#b37d16" d="M 599.5,626.5 C 600.496,626.414 601.329,626.748 602,627.5C 603.308,629.134 604.142,630.968 604.5,633C 601.63,642.308 599.963,651.808 599.5,661.5C 599.784,685.739 609.784,704.739 629.5,718.5C 615.453,711.086 606.12,699.753 601.5,684.5C 600.653,680.777 599.653,677.111 598.5,673.5C 597.833,673.5 597.5,673.167 597.5,672.5C 597.5,672.167 597.5,671.833 597.5,671.5C 597.334,666.156 597.501,660.823 598,655.5C 599.399,648.471 600.899,641.471 602.5,634.5C 602.45,631.459 601.45,628.792 599.5,626.5 Z"/></g>
<g><path style="opacity:0.733" fill="#e5a21f" d="M 466.5,742.5 C 472.981,743.415 476.981,747.081 478.5,753.5C 476.256,762.657 471.922,770.657 465.5,777.5C 473.41,790.905 481.91,803.905 491,816.5C 499.893,803.938 508.393,791.105 516.5,778C 510.472,771.112 506.139,763.278 503.5,754.5C 503.935,748.594 506.769,745.26 512,744.5C 513,743.833 514,743.167 515,742.5C 518.198,742.87 521.031,744.536 523.5,747.5C 540.693,775.865 562.36,800.365 588.5,821C 609.067,819.568 617.901,829.068 615,849.5C 608.031,861.042 598.197,864.209 585.5,859C 577.646,853.372 573.646,845.872 573.5,836.5C 557.922,824.759 543.756,811.425 531,796.5C 523.366,809.606 514.866,822.106 505.5,834C 518.293,847.726 532.293,860.059 547.5,871C 557.443,870.439 565.943,873.605 573,880.5C 578.844,890.925 577.344,900.091 568.5,908C 556.47,914.22 546.304,912.053 538,901.5C 536.173,897.719 535.173,893.719 535,889.5C 519.153,878.328 504.486,865.662 491,851.5C 477.514,865.662 462.847,878.328 447,889.5C 444.701,907.072 434.868,913.905 417.5,910C 405.579,903.571 402.412,894.071 408,881.5C 414.812,873.913 423.145,870.913 433,872.5C 447.89,861.283 461.89,848.95 475,835.5C 475.667,834.5 475.667,833.5 475,832.5C 466.247,820.911 458.08,808.911 450.5,796.5C 438.093,811.575 424.093,824.909 408.5,836.5C 405.497,858.029 393.83,865.195 373.5,858C 364.409,849.107 363.243,839.274 370,828.5C 376.091,821.769 383.591,819.269 392.5,821C 419.299,800.871 441.132,776.371 458,747.5C 460.531,745.097 463.364,743.43 466.5,742.5 Z"/></g>
<g><path style="opacity:0.733" fill="#e5a21e" d="M 348.5,869.5 C 361.652,870.318 368.986,877.318 370.5,890.5C 366.339,909.248 355.339,914.748 337.5,907C 328.724,898.705 327.224,889.205 333,878.5C 337.601,874.291 342.768,871.291 348.5,869.5 Z"/></g>
<g><path style="opacity:0.733" fill="#e5a21e" d="M 630.5,869.5 C 643.736,870.404 651.069,877.404 652.5,890.5C 650.34,906.261 641.34,912.761 625.5,910C 616.394,906.722 611.727,900.222 611.5,890.5C 612.712,878.63 619.045,871.63 630.5,869.5 Z"/></g>
<g><path style="opacity:0.404" fill="#a85c06" d="M 952.5,925.5 C 955.001,925.511 955.168,926.178 953,927.5C 952.536,926.906 952.369,926.239 952.5,925.5 Z"/></g>
<g><path style="opacity:0.467" fill="#b07311" d="M 184.5,927.5 C 189.814,927.239 190.314,927.906 186,929.5C 184.97,929.164 184.47,928.497 184.5,927.5 Z"/></g>
</svg>
