<?xml version="1.0" standalone="no"?>
<!DOCTYPE svg PUBLIC "-//W3C//DTD SVG 20010904//EN"
 "http://www.w3.org/TR/2001/REC-SVG-20010904/DTD/svg10.dtd">
<svg version="1.0" xmlns="http://www.w3.org/2000/svg"
 width="1271.000000pt" height="1271.000000pt" viewBox="0 0 1271.000000 1271.000000"
 preserveAspectRatio="xMidYMid meet">
<metadata>
Created by potrace 1.14, written by Peter Selinger 2001-2017
</metadata>
<g transform="translate(0.000000,1271.000000) scale(0.100000,-0.100000)"
fill="#000000" stroke="none">
<path d="M6155 12663 c-1158 -45 -2280 -405 -3244 -1041 -1084 -716 -1921
-1752 -2396 -2966 -586 -1498 -577 -3149 25 -4652 82 -203 273 -598 380 -784
549 -952 1356 -1763 2298 -2309 845 -489 1796 -780 2761 -842 234 -15 789 -6
1001 15 1192 123 2271 542 3205 1246 999 753 1763 1806 2165 2986 168 493 273
984 322 1509 20 214 17 904 -5 1115 -103 986 -390 1859 -879 2673 -799 1332
-2080 2330 -3568 2781 -674 204 -1380 296 -2065 269z m967 -3880 c51 -25 64
-85 26 -120 -13 -11 -59 -40 -103 -63 -67 -36 -214 -143 -229 -168 -2 -4 15
-33 39 -64 51 -67 96 -178 130 -320 13 -55 26 -102 28 -105 7 -7 150 48 218
84 49 25 80 51 118 98 29 36 76 81 104 102 49 37 55 38 144 41 73 3 99 0 118
-12 78 -51 7 -130 -254 -280 -124 -71 -207 -107 -308 -133 -38 -10 -68 -22
-68 -28 0 -19 60 -5 172 39 129 51 203 70 508 127 396 74 465 80 675 59 153
-15 551 -48 735 -60 388 -27 651 -104 815 -240 117 -97 217 -207 250 -274 90
-183 50 -393 -104 -550 -63 -64 -191 -154 -286 -201 -30 -15 -145 -85 -255
-155 -243 -154 -368 -226 -590 -341 -376 -194 -554 -229 -817 -161 -64 17
-154 46 -200 65 -257 107 -430 183 -570 250 -104 50 -158 71 -158 62 0 -7 5
-37 12 -65 10 -43 21 -60 71 -106 73 -68 249 -156 417 -209 159 -51 218 -74
251 -102 32 -27 64 -105 74 -178 3 -28 10 -79 15 -115 5 -36 14 -110 20 -165
7 -55 23 -165 36 -245 37 -225 40 -267 20 -289 -26 -29 -62 -34 -99 -15 -99
52 -215 165 -253 249 -58 127 -68 307 -24 431 11 32 23 66 26 75 4 12 -9 19
-63 32 -115 28 -365 79 -368 75 -2 -2 1 -35 6 -73 5 -39 14 -117 19 -174 13
-123 38 -178 150 -331 186 -252 211 -322 235 -655 3 -49 15 -139 25 -200 10
-60 22 -154 26 -207 6 -82 4 -101 -10 -123 -24 -37 -63 -32 -135 16 -112 75
-194 193 -242 349 -32 102 -30 236 5 374 22 89 23 103 11 127 -18 33 -79 85
-116 98 -36 12 -47 -1 -59 -73 -5 -30 -27 -108 -50 -173 -23 -65 -55 -158 -71
-208 -57 -170 -123 -288 -245 -440 -150 -188 -303 -286 -509 -326 -59 -11 -61
-11 -145 28 -148 69 -332 232 -460 407 -61 84 -123 222 -164 366 -80 280 -96
322 -144 372 -33 36 -72 36 -139 3 -75 -38 -80 -46 -53 -102 62 -133 89 -315
63 -433 -13 -60 -50 -150 -61 -150 -4 0 -16 -15 -26 -34 -24 -46 -228 -246
-250 -246 -10 0 -31 14 -48 31 l-31 30 6 142 c4 78 14 171 22 207 9 36 40 183
70 328 61 300 65 312 113 407 28 54 63 97 155 189 l120 120 -23 155 c-12 86
-24 157 -25 159 -2 2 -41 -8 -86 -22 -53 -16 -119 -27 -179 -30 -69 -4 -95 -9
-93 -18 1 -7 6 -37 12 -67 27 -134 7 -302 -47 -401 -67 -121 -101 -162 -221
-267 -91 -80 -130 -93 -152 -51 -17 32 -4 150 36 313 18 77 41 205 49 285 28
255 38 324 57 386 21 68 42 92 91 104 54 13 278 95 341 124 175 81 304 189
365 304 19 35 32 66 29 68 -11 11 -227 -85 -417 -186 -275 -146 -371 -183
-554 -215 -112 -19 -209 -19 -322 0 -210 36 -335 90 -676 291 -137 81 -200
113 -383 193 -330 145 -448 223 -537 354 -102 150 -149 350 -117 498 14 65
106 216 171 281 88 90 239 174 361 202 267 63 1071 136 1487 136 217 0 324
-16 505 -74 77 -24 210 -65 295 -91 85 -25 187 -58 227 -72 72 -25 103 -26
103 0 0 14 -122 64 -390 161 -179 65 -218 85 -275 140 -36 34 -45 49 -45 77 0
76 65 107 190 89 95 -14 115 -25 256 -146 39 -34 91 -73 116 -88 53 -31 224
-106 241 -106 7 0 21 45 35 115 27 139 59 222 112 293 22 29 40 56 40 61 0 18
-116 85 -238 137 -181 77 -216 122 -149 189 82 82 266 85 411 7 28 -15 91 -67
140 -116 l90 -88 53 12 c59 15 158 9 222 -13 l42 -15 26 41 c110 175 355 286
485 220z m1626 -498 c-3 -3 -9 2 -12 12 -6 14 -5 15 5 6 7 -7 10 -15 7 -18z"/>
<path d="M6188 8344 c-75 -39 -88 -166 -31 -296 l16 -38 144 0 c80 0 153 -5
164 -10 27 -15 25 -64 -3 -84 -18 -13 -52 -16 -165 -16 l-143 0 0 -31 c0 -18
15 -56 36 -90 l35 -59 202 0 c220 0 247 -6 247 -55 0 -49 -26 -55 -255 -55
-115 0 -241 -3 -278 -7 -76 -7 -78 -9 -90 -89 l-7 -42 93 -7 c95 -7 127 -21
127 -55 0 -39 -31 -50 -140 -50 l-103 0 6 -42 c4 -31 14 -51 36 -70 l31 -28
254 7 c229 6 257 4 280 -11 32 -20 33 -49 4 -76 -20 -18 -35 -20 -183 -20
l-161 0 -54 -32 c-75 -45 -115 -111 -115 -187 0 -74 18 -97 159 -215 98 -82
175 -159 243 -245 l19 -23 40 20 c51 27 144 126 144 154 0 5 -31 8 -69 8 -54
0 -74 4 -95 21 -31 25 -33 42 -6 69 18 18 33 20 168 20 l149 0 36 53 c21 30
37 57 37 60 0 4 -73 7 -163 7 -150 0 -165 2 -185 20 -26 24 -27 39 -8 66 13
18 32 19 277 24 l263 5 18 55 c9 30 17 72 17 92 l1 38 -210 -7 c-194 -6 -211
-5 -230 12 -27 24 -26 61 3 77 15 9 84 14 225 16 l203 4 -7 30 c-3 17 -13 46
-20 64 -13 30 -19 34 -53 34 -39 0 -71 23 -71 52 0 17 31 48 48 48 20 0 14 12
-41 85 l-52 70 -61 5 c-65 5 -104 28 -104 60 0 21 31 50 53 50 22 0 21 8 -7
71 -14 30 -39 113 -56 184 -40 162 -83 260 -136 303 -58 48 -74 49 -160 8 -42
-20 -81 -36 -87 -36 -6 0 -42 18 -80 41 -88 52 -116 60 -149 43z m704 -891
c21 -19 24 -56 5 -71 -17 -15 -72 -20 -285 -27 -149 -6 -176 -4 -197 9 -30 19
-33 56 -7 79 14 13 45 17 142 20 326 8 322 8 342 -10z m-424 -529 c26 -18 28
-50 5 -76 -25 -28 -175 -26 -203 2 -11 11 -20 27 -20 35 0 8 9 24 20 35 17 17
33 20 98 20 54 0 84 -5 100 -16z"/>
<path d="M4480 7855 c-14 -2 -126 -9 -250 -15 -124 -6 -288 -18 -365 -26 -348
-36 -437 -47 -569 -69 -117 -20 -155 -31 -221 -65 -44 -22 -93 -50 -108 -63
l-28 -22 23 -34 c13 -19 40 -48 60 -64 l37 -30 53 45 c63 54 103 75 155 84 31
5 42 2 56 -14 34 -37 19 -64 -56 -101 -117 -58 -188 -177 -172 -291 l7 -49 91
-54 c51 -30 151 -85 222 -123 72 -37 186 -104 255 -149 69 -45 175 -108 235
-140 188 -99 239 -127 258 -143 25 -22 21 -59 -8 -78 -24 -16 -28 -15 -108 24
-167 82 -325 171 -447 249 -69 44 -192 115 -275 158 -82 43 -201 111 -263 151
-62 41 -117 74 -122 74 -12 0 -40 -53 -40 -75 0 -8 20 -35 44 -59 45 -45 147
-100 331 -176 102 -43 338 -166 455 -237 103 -62 301 -170 372 -203 139 -62
333 -97 459 -81 191 25 307 70 599 232 122 67 205 104 385 169 l130 47 3 37
c4 47 -13 47 -102 1 -77 -40 -96 -43 -119 -17 -24 26 -21 52 10 84 21 22 28
40 31 89 3 33 1 64 -4 69 -12 11 -225 -62 -379 -130 -296 -130 -419 -173 -574
-201 -224 -41 -304 -22 -504 119 -120 83 -138 110 -99 145 31 28 54 20 160
-54 122 -84 202 -119 273 -119 69 0 279 43 370 76 63 23 294 118 384 159 76
34 118 50 230 87 66 21 124 43 128 47 39 38 -171 124 -477 195 -82 19 -96 29
-96 67 0 50 32 56 158 30 133 -28 278 -72 357 -110 62 -29 75 -27 75 14 0 12
7 47 15 79 9 33 14 61 11 63 -6 7 -183 52 -241 62 -27 5 -111 18 -185 30 -368
59 -378 61 -404 90 -10 11 -16 29 -14 42 6 42 27 44 180 20 519 -81 514 -81
632 -117 43 -14 79 -24 80 -22 1 2 10 16 20 31 10 16 16 30 14 32 -2 2 -57 20
-123 40 -66 20 -199 62 -295 92 -96 31 -224 64 -283 74 -100 17 -370 32 -427
24z m15 -125 c30 -11 39 -31 31 -63 -9 -36 -47 -47 -159 -47 -56 0 -160 -7
-232 -15 -71 -8 -169 -15 -217 -15 -78 0 -90 3 -115 24 -27 24 -27 26 -13 53
14 25 21 28 75 30 33 2 119 8 190 14 306 28 405 32 440 19z m-920 -92 c35 -16
43 -54 18 -80 -29 -28 -98 -36 -123 -13 -40 36 -20 80 43 95 17 4 33 8 34 9 1
1 14 -4 28 -11z m1030 -179 c86 -7 149 -17 163 -25 27 -18 29 -55 2 -79 -18
-16 -31 -17 -192 -6 -290 19 -300 20 -314 32 -17 14 -18 61 -2 77 15 15 156
16 343 1z m-861 -65 c41 -41 7 -78 -96 -105 -255 -66 -372 -90 -394 -80 -36
16 -47 45 -26 71 14 17 64 34 227 75 228 58 265 63 289 39z m1081 -179 c90
-12 113 -18 128 -36 9 -12 17 -25 17 -31 0 -18 -50 -59 -68 -54 -73 21 -276
29 -604 23 -345 -6 -358 -6 -368 13 -30 55 4 76 140 88 176 15 631 14 755 -3z
m-1144 -111 c117 -78 149 -106 149 -130 0 -18 -36 -54 -55 -54 -28 0 -275 174
-281 198 -8 28 20 62 51 62 12 0 73 -34 136 -76z m1673 -340 c22 -21 20 -50
-4 -71 -10 -10 -89 -47 -175 -82 -134 -55 -160 -62 -180 -53 -34 16 -43 58
-18 83 24 25 298 138 335 138 15 1 34 -6 42 -15z m-473 -176 c21 -39 -14 -79
-118 -132 -77 -38 -156 -56 -253 -56 -103 0 -134 13 -138 57 -5 45 21 55 152
57 117 2 139 9 264 80 47 26 77 24 93 -6z"/>
<path d="M8160 7850 c-89 -9 -645 -113 -712 -134 -26 -7 -89 -31 -142 -51
l-95 -38 26 -46 c15 -25 27 -47 29 -49 1 -2 62 17 135 42 172 57 272 81 541
126 135 23 160 20 173 -20 9 -28 -10 -57 -47 -69 -18 -6 -87 -19 -153 -30
-213 -35 -274 -49 -445 -98 -51 -15 -140 -49 -148 -58 -4 -3 37 -135 41 -135
1 0 34 11 72 24 39 13 108 31 155 41 47 9 136 28 198 42 125 27 157 25 174
-13 23 -51 -40 -79 -288 -129 -131 -26 -286 -74 -291 -90 -1 -5 24 -25 57 -43
33 -18 115 -68 182 -111 160 -102 196 -120 358 -174 228 -78 290 -90 405 -84
129 7 224 37 347 111 52 31 104 56 115 56 29 0 57 -34 50 -62 -12 -48 -246
-174 -374 -202 -111 -25 -259 -21 -371 9 -150 40 -334 105 -417 147 -27 14
-117 69 -199 122 -81 53 -152 96 -156 96 -4 0 -10 -21 -14 -46 -11 -85 -7
-135 16 -175 20 -36 20 -39 4 -63 -19 -30 -42 -32 -91 -9 -34 16 -36 16 -50
-3 -8 -10 -15 -24 -15 -30 0 -25 319 -188 595 -302 66 -28 164 -69 217 -91 53
-23 145 -53 205 -67 197 -48 324 -21 640 135 228 113 399 212 683 397 122 79
350 261 350 278 0 17 -52 62 -82 72 -18 5 -27 0 -47 -27 -80 -109 -256 -234
-596 -424 -115 -65 -238 -135 -272 -155 -34 -21 -88 -50 -119 -65 -53 -25 -61
-26 -84 -13 -14 7 -26 24 -28 37 -4 26 29 67 62 77 12 3 73 37 136 74 63 37
194 111 290 165 421 234 551 347 552 480 1 69 -23 103 -120 168 -39 26 -74 56
-77 67 -8 25 9 57 36 65 25 8 110 -40 179 -103 l48 -42 28 32 c33 40 57 95 50
114 -11 29 -132 95 -237 129 -159 51 -300 72 -614 90 -111 6 -266 19 -490 40
-218 20 -291 23 -375 15z m755 -131 c44 -6 88 -18 98 -27 25 -22 21 -59 -8
-78 -21 -14 -35 -15 -107 -4 -46 6 -191 13 -323 16 -132 3 -250 7 -262 10 -47
9 -53 76 -10 95 29 12 508 3 612 -12z m393 -55 c43 -28 16 -94 -40 -94 -37 0
-84 24 -98 50 -9 17 -6 25 15 46 22 22 32 25 63 19 20 -3 47 -13 60 -21z
m-742 -199 c21 -32 6 -72 -28 -79 -13 -2 -54 -9 -93 -15 -38 -7 -128 -22 -200
-35 -96 -17 -136 -21 -152 -13 -44 20 -41 81 5 98 15 6 92 22 172 35 79 14
147 27 149 30 2 2 33 4 67 4 57 0 65 -3 80 -25z m782 -94 c97 -33 196 -64 220
-71 55 -14 73 -47 48 -85 -12 -19 -25 -25 -51 -25 -41 0 -423 126 -447 148
-10 8 -18 25 -18 38 0 23 33 54 58 54 7 0 93 -27 190 -59z m-578 -176 c105
-12 128 -18 143 -36 23 -28 22 -35 -9 -65 -18 -19 -32 -24 -48 -20 -13 3 -100
13 -192 22 -135 12 -231 14 -470 9 -273 -6 -302 -6 -317 10 -23 22 -21 48 4
71 18 16 45 19 252 24 285 8 474 4 637 -15z m540 -75 c11 -11 20 -24 20 -29 0
-24 -53 -64 -153 -116 -118 -62 -151 -66 -163 -19 -10 41 16 61 201 158 60 31
69 32 95 6z m-1645 -385 c17 -7 71 -30 120 -50 50 -20 96 -41 103 -47 28 -23
0 -88 -38 -88 -27 0 -246 89 -274 111 -33 26 -33 52 0 78 25 20 34 20 89 -4z
m527 -191 c90 -24 115 -26 205 -21 101 6 104 5 119 -19 15 -22 15 -26 0 -49
-39 -60 -209 -62 -408 -4 -87 25 -120 66 -82 103 21 22 47 20 166 -10z"/>
<path d="M5818 6190 c-32 -31 -58 -60 -58 -64 0 -4 161 -6 359 -4 341 3 360 2
380 -16 26 -24 26 -37 2 -67 l-19 -24 -403 -5 -404 -5 -12 -25 c-6 -14 -14
-37 -18 -52 l-7 -26 340 5 c337 6 339 6 360 -15 26 -26 27 -41 8 -68 -14 -18
-34 -19 -363 -27 -191 -4 -354 -9 -360 -12 -20 -7 -17 -134 3 -142 8 -3 68 0
132 6 128 13 905 35 1232 36 l204 0 7 25 c4 14 7 35 8 48 l1 22 -303 -6 c-302
-7 -304 -7 -325 14 -27 27 -28 46 -2 70 19 17 45 20 287 26 146 4 286 10 310
13 l44 6 -6 51 c-4 28 -10 55 -14 59 -4 4 -70 10 -147 12 -126 4 -141 7 -156
26 -24 28 -23 44 4 69 21 19 34 21 143 20 133 -2 131 -3 105 64 -8 22 -15 27
-32 22 -13 -3 -203 1 -423 9 -220 8 -494 14 -610 13 l-210 -1 -57 -57z"/>
<path d="M4867 5558 c-12 -9 -20 -36 -27 -96 -5 -45 -14 -110 -20 -143 -6 -34
-8 -65 -3 -69 4 -4 25 -10 46 -13 36 -6 38 -5 62 43 13 27 29 69 35 95 13 60
15 164 3 176 -17 17 -77 21 -96 7z"/>
<path d="M7942 5498 c-9 -12 -28 -33 -41 -47 -24 -25 -24 -27 -12 -96 6 -38
17 -75 24 -82 7 -6 30 -14 52 -18 33 -5 44 -2 58 13 16 17 17 27 7 83 -5 35
-10 82 -10 105 0 63 -42 87 -78 42z"/>
<path d="M5660 5077 c0 -9 63 -100 75 -109 6 -4 112 -8 236 -8 307 0 376 -6
395 -36 17 -25 7 -56 -24 -73 -10 -5 -121 -6 -277 -1 -143 4 -263 4 -268 1 -4
-4 -1 -21 7 -37 8 -16 19 -41 25 -56 l11 -28 130 0 c117 0 132 -2 150 -20 25
-25 25 -32 2 -60 -16 -19 -30 -22 -127 -27 -61 -3 -112 -7 -114 -8 -1 -2 8
-37 20 -77 l24 -73 240 1 c132 0 366 3 520 7 l280 6 16 28 c8 15 23 46 31 69
l17 41 -363 -5 c-200 -3 -375 -2 -390 2 -29 7 -50 39 -41 65 11 36 47 41 338
42 155 1 329 4 387 8 l105 6 18 38 c10 21 20 50 23 65 l5 27 -278 -1 c-295 -1
-323 3 -323 46 0 11 9 29 20 40 19 19 33 20 314 20 229 0 296 3 304 13 6 7 14
32 18 56 6 41 6 42 -17 37 -43 -10 -795 -11 -1146 -2 -189 5 -343 6 -343 3z"/>
<path d="M5194 4630 c-29 -12 -32 -17 -49 -102 -13 -63 -13 -79 -1 -113 21
-61 84 -86 107 -43 21 39 39 121 39 179 0 78 -32 105 -96 79z"/>
<path d="M7592 4578 c-39 -30 -42 -35 -36 -68 9 -55 37 -144 48 -151 14 -10
61 9 86 36 20 21 21 29 14 104 -6 76 -9 83 -35 96 -35 19 -28 20 -77 -17z"/>
</g>
</svg>
